<?xml version="1.0" encoding="UTF-8" standalone="no"?>
<!-- Created with Inkscape (http://www.inkscape.org/) -->

<svg
   xmlns:dc="http://purl.org/dc/elements/1.1/"
   xmlns:cc="http://creativecommons.org/ns#"
   xmlns:rdf="http://www.w3.org/1999/02/22-rdf-syntax-ns#"
   xmlns:svg="http://www.w3.org/2000/svg"
   xmlns="http://www.w3.org/2000/svg"
   xmlns:sodipodi="http://sodipodi.sourceforge.net/DTD/sodipodi-0.dtd"
   xmlns:inkscape="http://www.inkscape.org/namespaces/inkscape"
   version="1.1"
   id="svg10092"
   xml:space="preserve"
   width="85.333336"
   height="85.333336"
   viewBox="0 0 85.333336 85.333336"
   sodipodi:docname="xylophone.svg"
   inkscape:version="0.92.1 unknown"><metadata
     id="metadata10098"><rdf:RDF><cc:Work
         rdf:about=""><dc:format>image/svg+xml</dc:format><dc:type
           rdf:resource="http://purl.org/dc/dcmitype/StillImage" /><dc:title></dc:title></cc:Work></rdf:RDF></metadata><defs
     id="defs10096"><clipPath
       clipPathUnits="userSpaceOnUse"
       id="clipPath10108"><path
         d="M 0,64 H 64 V 0 H 0 Z"
         id="path10106"
         inkscape:connector-curvature="0" /></clipPath><clipPath
       clipPathUnits="userSpaceOnUse"
       id="clipPath10120"><path
         d="m 39.017,59.89 c -0.695,-0.891 -1.082,-1.911 -1.231,-2.954 v 0 l -0.002,-10e-4 c -0.973,-0.401 -1.867,-1.029 -2.56,-1.92 v 0 c -0.693,-0.89 -1.081,-1.91 -1.23,-2.954 v 0 c -0.974,-0.4 -1.868,-1.028 -2.561,-1.919 v 0 c -0.693,-0.89 -1.081,-1.911 -1.231,-2.954 v 0 -0.001 c -0.973,-0.4 -1.867,-1.028 -2.56,-1.919 v 0 c -0.694,-0.89 -1.081,-1.911 -1.231,-2.954 v 0 C 25.438,41.913 24.543,41.285 23.85,40.395 v 0 c -0.693,-0.891 -1.081,-1.911 -1.23,-2.956 v 0 C 21.646,37.04 20.751,36.411 20.058,35.52 v 0 C 19.365,34.63 18.979,33.611 18.83,32.567 v 0 l -0.002,-10e-4 c -0.974,-0.402 -1.868,-1.028 -2.56,-1.918 v 0 c -0.694,-0.892 -1.08,-1.912 -1.23,-2.955 v 0 L 15.036,27.691 C 14.063,27.29 13.17,26.664 12.477,25.773 v 0 c -0.694,-0.889 -1.081,-1.91 -1.231,-2.953 v 0 C 10.272,22.418 9.378,21.79 8.685,20.9 v 0 C 7.992,20.01 7.603,18.988 7.455,17.945 v 0 L 35.074,2 56,53.482 41.576,61.808 c -0.974,-0.4 -1.867,-1.027 -2.559,-1.918"
         id="path10118"
         inkscape:connector-curvature="0" /></clipPath><clipPath
       clipPathUnits="userSpaceOnUse"
       id="clipPath10128"><path
         d="M 5.97266,62.6641 H 56 V 2 H 5.97266 Z"
         id="path10126"
         inkscape:connector-curvature="0" /></clipPath><clipPath
       clipPathUnits="userSpaceOnUse"
       id="clipPath10144"><path
         d="M 0,64 H 64 V 0 H 0 Z"
         id="path10142"
         inkscape:connector-curvature="0" /></clipPath><clipPath
       clipPathUnits="userSpaceOnUse"
       id="clipPath10156"><path
         d="M 20.4829,42.0308 H 42.0801 V 7.62207 H 20.4829 Z"
         id="path10154"
         inkscape:connector-curvature="0" /></clipPath><clipPath
       clipPathUnits="userSpaceOnUse"
       id="clipPath10176"><path
         d="M 18.282,47.343 C 16.13,46.1 15.392,43.348 16.635,41.196 v 0 c 1.243,-2.152 3.995,-2.89 6.146,-1.647 v 0 c 2.153,1.242 2.891,3.995 1.647,6.147 v 0 c -0.833,1.444 -2.345,2.251 -3.9,2.251 v 0 c -0.763,0 -1.537,-0.195 -2.246,-0.604"
         id="path10174"
         inkscape:connector-curvature="0" /></clipPath><clipPath
       clipPathUnits="userSpaceOnUse"
       id="clipPath10184"><path
         d="m 15.3086,45.3979 h 10.2305 v -7.625 H 15.3086 Z"
         id="path10182"
         inkscape:connector-curvature="0" /></clipPath><clipPath
       clipPathUnits="userSpaceOnUse"
       id="clipPath10200"><path
         d="M 0,64 H 64 V 0 H 0 Z"
         id="path10198"
         inkscape:connector-curvature="0" /></clipPath><clipPath
       clipPathUnits="userSpaceOnUse"
       id="clipPath10212"><path
         d="M 23.9155,53.4146 H 58.3242 V 31.8164 H 23.9155 Z"
         id="path10210"
         inkscape:connector-curvature="0" /></clipPath><clipPath
       clipPathUnits="userSpaceOnUse"
       id="clipPath10232"><path
         d="m 18.604,55.615 c -1.243,-2.151 -0.506,-4.904 1.647,-6.146 v 0 c 2.152,-1.242 4.904,-0.506 6.147,1.646 v 0 c 1.242,2.152 0.506,4.906 -1.649,6.147 v 0 c -0.708,0.41 -1.482,0.604 -2.245,0.604 v 0 c -1.555,0 -3.067,-0.807 -3.9,-2.251"
         id="path10230"
         inkscape:connector-curvature="0" /></clipPath><clipPath
       clipPathUnits="userSpaceOnUse"
       id="clipPath10240"><path
         d="M 18.3535,54.7871 H 29.6733 V 47.7285 H 18.3535 Z"
         id="path10238"
         inkscape:connector-curvature="0" /></clipPath></defs><sodipodi:namedview
     pagecolor="#ffffff"
     bordercolor="#666666"
     borderopacity="1"
     objecttolerance="10"
     gridtolerance="10"
     guidetolerance="10"
     inkscape:pageopacity="0"
     inkscape:pageshadow="2"
     inkscape:window-width="1920"
     inkscape:window-height="1017"
     id="namedview10094"
     showgrid="false"
     inkscape:zoom="2.7656249"
     inkscape:cx="42.666668"
     inkscape:cy="42.666668"
     inkscape:window-x="0"
     inkscape:window-y="30"
     inkscape:window-maximized="1"
     inkscape:current-layer="g10100" /><g
     id="g10100"
     inkscape:groupmode="layer"
     inkscape:label="xylophone"
     transform="matrix(1.3333333,0,0,-1.3333333,0,85.333333)"><g
       id="g10102"><g
         id="g10104"
         clip-path="url(#clipPath10108)"><g
           id="g10110"
           transform="translate(41.5762,61.8086)"><path
             d="M 0,0 C -0.975,-0.4 -1.867,-1.028 -2.56,-1.919 -3.254,-2.81 -3.642,-3.83 -3.79,-4.873 l -0.002,-10e-4 c -0.974,-0.4 -1.867,-1.028 -2.56,-1.919 -0.693,-0.891 -1.081,-1.911 -1.23,-2.954 v -10e-4 c -0.974,-0.4 -1.868,-1.028 -2.561,-1.919 -0.694,-0.89 -1.081,-1.911 -1.231,-2.954 v -10e-4 c -0.973,-0.399 -1.868,-1.027 -2.561,-1.918 -0.693,-0.891 -1.081,-1.911 -1.23,-2.955 -0.974,-0.401 -1.868,-1.028 -2.561,-1.919 -0.693,-0.891 -1.081,-1.911 -1.231,-2.955 -0.973,-0.401 -1.868,-1.028 -2.561,-1.92 -0.692,-0.89 -1.079,-1.909 -1.229,-2.952 l -0.001,-0.002 c -0.974,-0.401 -1.868,-1.028 -2.56,-1.918 -0.694,-0.892 -1.081,-1.911 -1.23,-2.954 l -0.002,-0.002 c -0.973,-0.402 -1.867,-1.028 -2.559,-1.918 -0.694,-0.89 -1.082,-1.911 -1.231,-2.954 -0.974,-0.402 -1.868,-1.03 -2.561,-1.92 -0.693,-0.89 -1.082,-1.911 -1.231,-2.954 l 27.62,-15.946 20.926,51.482 z"
             style="fill:#d99a57;fill-opacity:1;fill-rule:nonzero;stroke:none"
             id="path10112"
             inkscape:connector-curvature="0" /></g></g></g><g
       id="g10114"><g
         id="g10116"
         clip-path="url(#clipPath10120)"><g
           id="g10122"><g
             id="g10124" /><g
             id="g10136"><g
               clip-path="url(#clipPath10128)"
               id="g10134"
               style="opacity:0.30000299"><g
                 transform="translate(56,53.481)"
                 id="g10132"><path
                   d="M 0,0 -15.906,9.183 -19.698,4.309 -2.325,-5.72 Z M -4.65,-11.44 -23.489,-0.564 -27.28,-5.438 -6.976,-17.16 Z m -4.651,-11.439 -21.77,12.567 -3.792,-4.874 23.237,-13.415 z m -4.649,-11.442 -24.704,14.262 -3.791,-4.874 26.169,-15.107 z m -6.976,-17.16 -29.101,16.801 3.791,4.874 27.634,-15.954 z"
                   style="fill:#ffffff;fill-opacity:1;fill-rule:nonzero;stroke:none"
                   id="path10130"
                   inkscape:connector-curvature="0" /></g></g></g></g></g></g><g
       id="g10138"><g
         id="g10140"
         clip-path="url(#clipPath10144)"><g
           id="g10146"
           transform="translate(42.0801,9.1221)"><path
             d="m 0,0 -2.598,-1.5 -18.999,32.909 2.597,1.5 z"
             style="fill:#e9bf54;fill-opacity:1;fill-rule:nonzero;stroke:none"
             id="path10148"
             inkscape:connector-curvature="0" /></g><g
           id="g10150"><g
             id="g10152" /><g
             id="g10164"><g
               clip-path="url(#clipPath10156)"
               id="g10162"
               style="opacity:0.30000299"><g
                 transform="translate(42.0801,9.1221)"
                 id="g10160"><path
                   d="m 0,0 -2.598,-1.5 -18.999,32.909 2.597,1.5 z"
                   style="fill:#ffffff;fill-opacity:1;fill-rule:nonzero;stroke:none"
                   id="path10158"
                   inkscape:connector-curvature="0" /></g></g></g></g><g
           id="g10166"
           transform="translate(24.4277,45.6958)"><path
             d="M 0,0 C 1.244,-2.152 0.506,-4.905 -1.646,-6.147 -3.798,-7.39 -6.55,-6.652 -7.793,-4.5 -9.036,-2.348 -8.298,0.404 -6.146,1.647 -3.994,2.89 -1.242,2.152 0,0"
             style="fill:#d99a57;fill-opacity:1;fill-rule:nonzero;stroke:none"
             id="path10168"
             inkscape:connector-curvature="0" /></g></g></g><g
       id="g10170"><g
         id="g10172"
         clip-path="url(#clipPath10176)"><g
           id="g10178"><g
             id="g10180" /><g
             id="g10192"><g
               clip-path="url(#clipPath10184)"
               id="g10190"
               style="opacity:0.5"><g
                 transform="translate(22.2036,43.5498)"
                 id="g10188"><path
                   d="m 0,0 c 1.019,-1.766 3.335,-5.777 3.335,-5.777 0,0 -8.715,0.316 -9.734,2.082 -1.021,1.767 -0.415,4.028 1.352,5.048 C -3.281,2.373 -1.021,1.767 0,0"
                   style="fill:#93684e;fill-opacity:1;fill-rule:nonzero;stroke:none"
                   id="path10186"
                   inkscape:connector-curvature="0" /></g></g></g></g></g></g><g
       id="g10194"><g
         id="g10196"
         clip-path="url(#clipPath10200)"><g
           id="g10202"
           transform="translate(58.3242,34.415)"><path
             d="m 0,0 -1.5,-2.599 -32.909,19.001 1.5,2.598 z"
             style="fill:#e9bf54;fill-opacity:1;fill-rule:nonzero;stroke:none"
             id="path10204"
             inkscape:connector-curvature="0" /></g><g
           id="g10206"><g
             id="g10208" /><g
             id="g10220"><g
               clip-path="url(#clipPath10212)"
               id="g10218"
               style="opacity:0.30000299"><g
                 transform="translate(58.3242,34.415)"
                 id="g10216"><path
                   d="m 0,0 -1.5,-2.599 -32.909,19.001 1.5,2.598 z"
                   style="fill:#ffffff;fill-opacity:1;fill-rule:nonzero;stroke:none"
                   id="path10214"
                   inkscape:connector-curvature="0" /></g></g></g></g><g
           id="g10222"
           transform="translate(24.7495,57.2622)"><path
             d="m 0,0 c 2.154,-1.242 2.891,-3.995 1.648,-6.147 -1.242,-2.152 -3.995,-2.889 -6.147,-1.646 -2.152,1.242 -2.89,3.994 -1.647,6.147 C -4.903,0.506 -2.152,1.243 0,0"
             style="fill:#d99a57;fill-opacity:1;fill-rule:nonzero;stroke:none"
             id="path10224"
             inkscape:connector-curvature="0" /></g></g></g><g
       id="g10226"><g
         id="g10228"
         clip-path="url(#clipPath10232)"><g
           id="g10234"><g
             id="g10236" /><g
             id="g10248"><g
               clip-path="url(#clipPath10240)"
               id="g10246"
               style="opacity:0.5"><g
                 transform="translate(23.8965,54.2915)"
                 id="g10244"><path
                   d="m 0,0 c 1.766,-1.02 5.777,-3.335 5.777,-3.335 0,0 -7.706,-4.084 -9.472,-3.064 -1.767,1.02 -2.373,3.28 -1.353,5.047 C -4.028,0.415 -1.768,1.02 0,0"
                   style="fill:#93684e;fill-opacity:1;fill-rule:nonzero;stroke:none"
                   id="path10242"
                   inkscape:connector-curvature="0" /></g></g></g></g></g></g></g></svg>