<?xml version="1.0" encoding="UTF-8" standalone="no"?>
<!-- Created with Inkscape (http://www.inkscape.org/) -->

<svg
   xmlns:dc="http://purl.org/dc/elements/1.1/"
   xmlns:cc="http://creativecommons.org/ns#"
   xmlns:rdf="http://www.w3.org/1999/02/22-rdf-syntax-ns#"
   xmlns:svg="http://www.w3.org/2000/svg"
   xmlns="http://www.w3.org/2000/svg"
   xmlns:sodipodi="http://sodipodi.sourceforge.net/DTD/sodipodi-0.dtd"
   xmlns:inkscape="http://www.inkscape.org/namespaces/inkscape"
   version="1.1"
   id="svg6699"
   xml:space="preserve"
   width="85.333336"
   height="85.333336"
   viewBox="0 0 85.333336 85.333336"
   sodipodi:docname="cello.svg"
   inkscape:version="0.92.1 unknown"><metadata
     id="metadata6705"><rdf:RDF><cc:Work
         rdf:about=""><dc:format>image/svg+xml</dc:format><dc:type
           rdf:resource="http://purl.org/dc/dcmitype/StillImage" /><dc:title></dc:title></cc:Work></rdf:RDF></metadata><defs
     id="defs6703"><clipPath
       clipPathUnits="userSpaceOnUse"
       id="clipPath6715"><path
         d="M 0,64 H 64 V 0 H 0 Z"
         id="path6713"
         inkscape:connector-curvature="0" /></clipPath><clipPath
       clipPathUnits="userSpaceOnUse"
       id="clipPath6727"><path
         d="m 23.896,41.479 c -0.522,-0.903 -1.011,-2.628 -1.464,-4.82 v 0 c 0.009,-0.005 0.019,-0.007 0.028,-0.011 v 0 c 1.683,-0.97 1.994,-3.579 0.703,-5.82 v 0 c -1.295,-2.242 -3.709,-3.273 -5.392,-2.303 v 0 c -0.152,0.087 -0.279,0.201 -0.407,0.314 v 0 c -3.367,-2.294 -6.071,-4.496 -7.039,-6.172 v 0 C 6.923,16.774 10.359,8.429 17.373,4.373 v 0 c 7.01,-4.049 15.96,-2.848 19.362,3.045 v 0 c 0.967,1.676 1.524,5.117 1.826,9.178 v 0 c -0.163,0.056 -0.326,0.108 -0.479,0.196 v 0 c -1.682,0.97 -1.997,3.585 -0.695,5.828 v 0 c 1.291,2.241 3.705,3.27 5.389,2.3 v 0 c 0.008,-0.004 0.013,-0.011 0.02,-0.016 v 0 c 1.673,1.489 2.92,2.775 3.442,3.679 v 0 c 2.862,4.943 -0.103,12.002 -5.995,15.403 v 0 c -2.337,1.349 -4.942,2.012 -7.413,2.012 v 0 c -3.76,0.001 -7.209,-1.534 -8.934,-4.519"
         id="path6725"
         inkscape:connector-curvature="0" /></clipPath><clipPath
       clipPathUnits="userSpaceOnUse"
       id="clipPath6735"><path
         d="M 10.9893,43.998 H 45.3418 V 3.99805 H 10.9893 Z"
         id="path6733"
         inkscape:connector-curvature="0" /></clipPath><clipPath
       clipPathUnits="userSpaceOnUse"
       id="clipPath6751"><path
         d="M 9,45.998 H 43.3301 V 3.74805 L 9,3.74805 Z"
         id="path6749"
         inkscape:connector-curvature="0" /></clipPath><clipPath
       clipPathUnits="userSpaceOnUse"
       id="clipPath6767"><path
         d="M 0,64 H 64 V 0 H 0 Z"
         id="path6765"
         inkscape:connector-curvature="0" /></clipPath><clipPath
       clipPathUnits="userSpaceOnUse"
       id="clipPath6779"><path
         d="m 46.628,62.113 c -0.746,-1.295 -0.582,-2.862 0.304,-3.967 v 0 L 28.916,29.082 32.995,26.726 49.157,56.865 c 1.397,-0.213 2.842,0.422 3.588,1.72 v 0 c 0.975,1.685 0.401,3.849 -1.289,4.822 v 0 c -0.557,0.321 -1.165,0.473 -1.765,0.473 v 0 c -1.222,0 -2.41,-0.633 -3.063,-1.767 M 16.332,4.922 14.522,1.786 c 0,0 -0.587,-1.019 0.432,-1.605 v 0 C 15.165,0.06 15.358,0.007 15.53,0 v 0 h 0.08 c 0.611,0.024 0.95,0.613 0.95,0.613 v 0 l 1.81,3.135 9.449,14.008 -4.081,2.355 z"
         id="path6777"
         inkscape:connector-curvature="0" /></clipPath><clipPath
       clipPathUnits="userSpaceOnUse"
       id="clipPath6791"><path
         d="m 45.3506,64 h 6.4473 v -9.0972 h -6.4473 z"
         id="path6789"
         inkscape:connector-curvature="0" /></clipPath><clipPath
       clipPathUnits="userSpaceOnUse"
       id="clipPath6807"><path
         d="m 14.354,6.45508 h 5.5786 V -9.76562e-4 H 14.354 Z"
         id="path6805"
         inkscape:connector-curvature="0" /></clipPath><clipPath
       clipPathUnits="userSpaceOnUse"
       id="clipPath6823"><path
         d="M 0,64 H 64 V 0 H 0 Z"
         id="path6821"
         inkscape:connector-curvature="0" /></clipPath><clipPath
       clipPathUnits="userSpaceOnUse"
       id="clipPath6831"><path
         d="M 17.1079,27.6953 H 34.3711 V 12.1543 H 17.1079 Z"
         id="path6829"
         inkscape:connector-curvature="0" /></clipPath><clipPath
       clipPathUnits="userSpaceOnUse"
       id="clipPath6847"><path
         d="m 25.7388,25.6182 h 5.2578 v -4.3985 h -5.2578 z"
         id="path6845"
         inkscape:connector-curvature="0" /></clipPath><clipPath
       clipPathUnits="userSpaceOnUse"
       id="clipPath6863"><path
         d="M 23.7388,58.146 H 48.0469 V 18.9336 H 23.7388 Z"
         id="path6861"
         inkscape:connector-curvature="0" /></clipPath></defs><sodipodi:namedview
     pagecolor="#ffffff"
     bordercolor="#666666"
     borderopacity="1"
     objecttolerance="10"
     gridtolerance="10"
     guidetolerance="10"
     inkscape:pageopacity="0"
     inkscape:pageshadow="2"
     inkscape:window-width="686"
     inkscape:window-height="480"
     id="namedview6701"
     showgrid="false"
     inkscape:zoom="2.7656249"
     inkscape:cx="42.666668"
     inkscape:cy="42.666668"
     inkscape:window-x="511"
     inkscape:window-y="138"
     inkscape:window-maximized="0"
     inkscape:current-layer="g6707" /><g
     id="g6707"
     inkscape:groupmode="layer"
     inkscape:label="cello"
     transform="matrix(1.3333333,0,0,-1.3333333,0,85.333333)"><g
       id="g6709"><g
         id="g6711"
         clip-path="url(#clipPath6715)"><g
           id="g6717"
           transform="translate(40.2422,43.9858)"><path
             d="m 0,0 c -5.891,3.402 -13.488,2.44 -16.346,-2.507 -0.522,-0.904 -1.011,-2.627 -1.464,-4.82 0.009,-0.005 0.019,-0.006 0.028,-0.011 1.683,-0.97 1.994,-3.579 0.703,-5.82 -1.295,-2.242 -3.709,-3.272 -5.393,-2.302 -0.151,0.086 -0.278,0.201 -0.406,0.313 -3.367,-2.294 -6.071,-4.496 -7.039,-6.172 -3.403,-5.892 0.034,-14.237 7.048,-18.294 7.01,-4.049 15.96,-2.847 19.362,3.045 0.967,1.676 1.524,5.117 1.826,9.178 -0.163,0.056 -0.327,0.108 -0.479,0.196 -1.683,0.971 -1.996,3.585 -0.695,5.828 1.291,2.241 3.705,3.271 5.389,2.3 0.008,-0.004 0.013,-0.011 0.02,-0.016 1.673,1.49 2.921,2.775 3.442,3.679 C 8.857,-10.46 5.893,-3.401 0,0"
             style="fill:#93684e;fill-opacity:1;fill-rule:nonzero;stroke:none"
             id="path6719"
             inkscape:connector-curvature="0" /></g></g></g><g
       id="g6721"><g
         id="g6723"
         clip-path="url(#clipPath6727)"><g
           id="g6729"><g
             id="g6731" /><g
             id="g6743"><g
               clip-path="url(#clipPath6735)"
               id="g6741"
               style="opacity:0.5"><g
                 transform="translate(26.1011,3.998)"
                 id="g6739"><path
                   d="m 0,0 c -2.669,0 -5.341,0.729 -7.728,2.106 -6.217,3.597 -9.11,10.724 -6.316,15.563 0.372,0.644 1.568,2.095 5.4,4.803 0.54,-0.203 1.123,-0.31 1.715,-0.31 2.223,0.001 4.417,1.405 5.723,3.667 1.556,2.701 1.385,5.748 -0.25,7.588 0.456,1.958 0.803,2.752 0.983,3.064 C 0.8,38.685 3.492,40 6.729,40 c 2.188,0 4.465,-0.619 6.412,-1.744 2.857,-1.649 5.025,-4.363 5.799,-7.262 0.375,-1.399 0.586,-3.473 -0.533,-5.407 -0.182,-0.315 -0.699,-1.014 -2.172,-2.394 -0.315,0.062 -0.637,0.094 -0.963,0.094 -2.225,0 -4.416,-1.405 -5.719,-3.666 C 8.542,17.878 8.227,15.881 8.691,14.144 8.98,13.063 9.563,12.145 10.362,11.49 9.933,6.826 9.275,5.065 8.902,4.419 7.304,1.652 3.976,0 0,0"
                   style="fill:#ea7a2f;fill-opacity:1;fill-rule:nonzero;stroke:none"
                   id="path6737"
                   inkscape:connector-curvature="0" /></g></g></g></g><g
           id="g6745"><g
             id="g6747" /><g
             id="g6759"><g
               clip-path="url(#clipPath6751)"
               id="g6757"
               style="opacity:0.14999402"><g
                 transform="translate(18.3701,3.748)"
                 id="g6755"><path
                   d="M 0,0 9.449,14.008 14.625,22.979 24.96,42.25 H -9.37 L -9.37,0 Z"
                   style="fill:#ffffff;fill-opacity:1;fill-rule:nonzero;stroke:none"
                   id="path6753"
                   inkscape:connector-curvature="0" /></g></g></g></g></g></g><g
       id="g6761"><g
         id="g6763"
         clip-path="url(#clipPath6767)"><g
           id="g6769"
           transform="translate(23.7388,20.1113)"><path
             d="m 0,0 -7.406,-15.189 -1.811,-3.136 c 0,0 -0.587,-1.02 0.433,-1.606 1.018,-0.586 1.605,0.433 1.605,0.433 l 1.81,3.135 9.449,14.008 z M 25.418,36.753 9.256,6.615 5.178,8.971 23.194,38.035 c -0.887,1.105 -1.051,2.672 -0.305,3.967 0.973,1.69 3.137,2.269 4.828,1.294 1.69,-0.974 2.264,-3.137 1.289,-4.823 -0.746,-1.297 -2.191,-1.932 -3.588,-1.72"
             style="fill:#47475e;fill-opacity:1;fill-rule:nonzero;stroke:none"
             id="path6771"
             inkscape:connector-curvature="0" /></g></g></g><g
       id="g6773"><g
         id="g6775"
         clip-path="url(#clipPath6779)"><g
           id="g6781"
           transform="translate(53.2197,51.0488)"><path
             d="m 0,0 -9.716,5.611 v 7.264 H 0 Z"
             style="fill:#93684e;fill-opacity:1;fill-rule:nonzero;stroke:none"
             id="path6783"
             inkscape:connector-curvature="0" /></g><g
           id="g6785"><g
             id="g6787" /><g
             id="g6799"><g
               clip-path="url(#clipPath6791)"
               id="g6797"
               style="opacity:0.5"><g
                 transform="translate(45.9863,63.8804)"
                 id="g6795"><path
                   d="M 0,0 5.812,0.12 0.56,-8.978 -0.636,-8.287 Z"
                   style="fill:#ea7a2f;fill-opacity:1;fill-rule:nonzero;stroke:none"
                   id="path6793"
                   inkscape:connector-curvature="0" /></g></g></g></g><g
           id="g6801"><g
             id="g6803" /><g
             id="g6815"><g
               clip-path="url(#clipPath6807)"
               id="g6813"
               style="opacity:0.30000299"><g
                 transform="translate(17.373,4.373)"
                 id="g6811"><path
                   d="M 0,0 C -1.043,0.604 -1.997,1.311 -2.871,2.082 H -3.019 V -4.374 H 2.56 v 3.162 C 1.688,-0.879 0.83,-0.479 0,0"
                   style="fill:#231f20;fill-opacity:1;fill-rule:nonzero;stroke:none"
                   id="path6809"
                   inkscape:connector-curvature="0" /></g></g></g></g></g></g><g
       id="g6817"><g
         id="g6819"
         clip-path="url(#clipPath6823)"><g
           id="g6825"><g
             id="g6827" /><g
             id="g6839"><g
               clip-path="url(#clipPath6831)"
               id="g6837"
               style="opacity:0.5"><g
                 transform="translate(30.0894,16.9775)"
                 id="g6835"><path
                   d="m 0,0 c -0.972,-1.688 -0.393,-3.851 1.296,-4.823 -0.408,0.709 -0.438,1.607 0,2.357 C 1.728,-1.713 3,0.491 3.811,1.891 4.782,3.581 4.202,5.74 2.515,6.714 2.918,6.007 2.95,5.108 2.515,4.358 2.084,3.612 0.811,1.401 0,0 m -8.161,4.714 c -0.976,-1.69 -3.131,-2.269 -4.82,-1.297 0.813,0.012 1.604,0.423 2.038,1.185 0.436,0.745 1.71,2.957 2.52,4.356 0.975,1.688 3.131,2.26 4.82,1.285 -0.814,0 -1.605,-0.423 -2.043,-1.173 C -6.077,8.315 -7.351,6.113 -8.161,4.714"
                   style="fill:#231f20;fill-opacity:1;fill-rule:nonzero;stroke:none"
                   id="path6833"
                   inkscape:connector-curvature="0" /></g></g></g></g><g
           id="g6841"><g
             id="g6843" /><g
             id="g6855"><g
               clip-path="url(#clipPath6847)"
               id="g6853"
               style="opacity:0.30000299"><g
                 transform="translate(29.8188,21.2197)"
                 id="g6851"><path
                   d="m 0,0 -4.08,2.356 1.178,2.042 4.08,-2.355 z"
                   style="fill:#ffffff;fill-opacity:1;fill-rule:nonzero;stroke:none"
                   id="path6849"
                   inkscape:connector-curvature="0" /></g></g></g></g><g
           id="g6857"><g
             id="g6859" /><g
             id="g6871"><g
               clip-path="url(#clipPath6863)"
               id="g6869"
               style="opacity:0.14999402"><g
                 transform="translate(23.7388,20.1113)"
                 id="g6867"><path
                   d="M 0,0 5.178,8.971 23.194,38.035 24.308,37.391 2.041,-1.178 Z"
                   style="fill:#ffffff;fill-opacity:1;fill-rule:nonzero;stroke:none"
                   id="path6865"
                   inkscape:connector-curvature="0" /></g></g></g></g></g></g></g></svg>