<?xml version="1.0" encoding="UTF-8" standalone="no"?>
<!-- Created with Inkscape (http://www.inkscape.org/) -->

<svg
   xmlns:dc="http://purl.org/dc/elements/1.1/"
   xmlns:cc="http://creativecommons.org/ns#"
   xmlns:rdf="http://www.w3.org/1999/02/22-rdf-syntax-ns#"
   xmlns:svg="http://www.w3.org/2000/svg"
   xmlns="http://www.w3.org/2000/svg"
   xmlns:xlink="http://www.w3.org/1999/xlink"
   xmlns:sodipodi="http://sodipodi.sourceforge.net/DTD/sodipodi-0.dtd"
   xmlns:inkscape="http://www.inkscape.org/namespaces/inkscape"
   version="1.1"
   id="svg4515"
   xml:space="preserve"
   width="85.333336"
   height="85.333336"
   viewBox="0 0 85.333336 85.333336"
   sodipodi:docname="flute.svg"
   inkscape:version="0.92.1 unknown"><metadata
     id="metadata4521"><rdf:RDF><cc:Work
         rdf:about=""><dc:format>image/svg+xml</dc:format><dc:type
           rdf:resource="http://purl.org/dc/dcmitype/StillImage" /><dc:title></dc:title></cc:Work></rdf:RDF></metadata><defs
     id="defs4519"><linearGradient
       inkscape:collect="always"
       id="linearGradient5251"><stop
         style="stop-color:#c5c6c6;stop-opacity:1;"
         offset="0"
         id="stop5247" /><stop
         id="stop5255"
         offset="0.5241521"
         style="stop-color:#dededd;stop-opacity:1" /><stop
         style="stop-color:#d4d7d4;stop-opacity:1"
         offset="1"
         id="stop5249" /></linearGradient><clipPath
       clipPathUnits="userSpaceOnUse"
       id="clipPath4531"><path
         d="M 0,64 H 64 V 0 H 0 Z"
         id="path4529"
         inkscape:connector-curvature="0" /></clipPath><clipPath
       clipPathUnits="userSpaceOnUse"
       id="clipPath4543"><path
         d="m 23.896,41.479 c -0.522,-0.903 -1.011,-2.628 -1.464,-4.82 v 0 c 0.009,-0.005 0.019,-0.007 0.028,-0.011 v 0 c 1.683,-0.97 1.994,-3.579 0.703,-5.82 v 0 c -1.295,-2.242 -3.709,-3.273 -5.392,-2.303 v 0 c -0.152,0.087 -0.279,0.201 -0.407,0.314 v 0 c -3.367,-2.294 -6.071,-4.496 -7.039,-6.172 v 0 C 6.923,16.774 10.359,8.429 17.373,4.373 v 0 c 7.01,-4.049 15.96,-2.848 19.362,3.045 v 0 c 0.967,1.676 1.524,5.117 1.826,9.178 v 0 c -0.163,0.056 -0.326,0.108 -0.479,0.196 v 0 c -1.682,0.97 -1.997,3.585 -0.695,5.828 v 0 c 1.291,2.241 3.705,3.27 5.389,2.3 v 0 c 0.008,-0.004 0.013,-0.011 0.02,-0.016 v 0 c 1.673,1.489 2.92,2.775 3.442,3.679 v 0 c 2.862,4.943 -0.103,12.002 -5.995,15.403 v 0 c -2.337,1.349 -4.942,2.012 -7.413,2.012 v 0 c -3.76,0.001 -7.209,-1.534 -8.934,-4.519"
         id="path4541"
         inkscape:connector-curvature="0" /></clipPath><clipPath
       clipPathUnits="userSpaceOnUse"
       id="clipPath4551"><path
         d="M 10.9893,43.998 H 45.3418 V 3.99805 H 10.9893 Z"
         id="path4549"
         inkscape:connector-curvature="0" /></clipPath><clipPath
       clipPathUnits="userSpaceOnUse"
       id="clipPath4567"><path
         d="M 9,45.998 H 43.3301 V 3.74805 L 9,3.74805 Z"
         id="path4565"
         inkscape:connector-curvature="0" /></clipPath><clipPath
       clipPathUnits="userSpaceOnUse"
       id="clipPath4583"><path
         d="M 0,64 H 64 V 0 H 0 Z"
         id="path4581"
         inkscape:connector-curvature="0" /></clipPath><clipPath
       clipPathUnits="userSpaceOnUse"
       id="clipPath4595"><path
         d="m 46.628,62.113 c -0.746,-1.295 -0.582,-2.862 0.304,-3.967 v 0 L 28.916,29.082 32.995,26.726 49.157,56.865 c 1.397,-0.213 2.842,0.422 3.588,1.72 v 0 c 0.975,1.685 0.401,3.849 -1.289,4.822 v 0 c -0.557,0.321 -1.165,0.473 -1.765,0.473 v 0 c -1.222,0 -2.41,-0.633 -3.063,-1.767 M 16.332,4.922 14.522,1.786 c 0,0 -0.587,-1.019 0.432,-1.605 v 0 C 15.165,0.06 15.358,0.007 15.53,0 v 0 h 0.08 c 0.611,0.024 0.95,0.613 0.95,0.613 v 0 l 1.81,3.135 9.449,14.008 -4.081,2.355 z"
         id="path4593"
         inkscape:connector-curvature="0" /></clipPath><clipPath
       clipPathUnits="userSpaceOnUse"
       id="clipPath4607"><path
         d="m 45.3506,64 h 6.4473 v -9.0972 h -6.4473 z"
         id="path4605"
         inkscape:connector-curvature="0" /></clipPath><clipPath
       clipPathUnits="userSpaceOnUse"
       id="clipPath4623"><path
         d="m 14.354,6.45508 h 5.5786 V -9.76562e-4 H 14.354 Z"
         id="path4621"
         inkscape:connector-curvature="0" /></clipPath><clipPath
       clipPathUnits="userSpaceOnUse"
       id="clipPath4639"><path
         d="M 0,64 H 64 V 0 H 0 Z"
         id="path4637"
         inkscape:connector-curvature="0" /></clipPath><clipPath
       clipPathUnits="userSpaceOnUse"
       id="clipPath4647"><path
         d="M 17.1079,27.6953 H 34.3711 V 12.1543 H 17.1079 Z"
         id="path4645"
         inkscape:connector-curvature="0" /></clipPath><clipPath
       clipPathUnits="userSpaceOnUse"
       id="clipPath4663"><path
         d="m 25.7388,25.6182 h 5.2578 v -4.3985 h -5.2578 z"
         id="path4661"
         inkscape:connector-curvature="0" /></clipPath><clipPath
       clipPathUnits="userSpaceOnUse"
       id="clipPath4679"><path
         d="M 23.7388,58.146 H 48.0469 V 18.9336 H 23.7388 Z"
         id="path4677"
         inkscape:connector-curvature="0" /></clipPath><linearGradient
       inkscape:collect="always"
       xlink:href="#linearGradient5251"
       id="linearGradient5253"
       x1="43.65218"
       y1="-14.766003"
       x2="43.741745"
       y2="-7.938942"
       gradientUnits="userSpaceOnUse"
       gradientTransform="matrix(1.3333331,6.3964893e-4,-6.3964893e-4,1.3333331,-60.469478,65.687272)" /><linearGradient
       inkscape:collect="always"
       xlink:href="#linearGradient5251"
       id="linearGradient5294"
       gradientUnits="userSpaceOnUse"
       gradientTransform="matrix(1.4271309,6.8464714e-4,-6.8464714e-4,1.4271309,-64.757705,66.750878)"
       x1="43.65218"
       y1="-14.766003"
       x2="43.741745"
       y2="-7.938942" /></defs><sodipodi:namedview
     pagecolor="#ffffff"
     bordercolor="#666666"
     borderopacity="1"
     objecttolerance="10"
     gridtolerance="10"
     guidetolerance="10"
     inkscape:pageopacity="0"
     inkscape:pageshadow="2"
     inkscape:window-width="1920"
     inkscape:window-height="1017"
     id="namedview4517"
     showgrid="false"
     inkscape:zoom="4"
     inkscape:cx="74.450516"
     inkscape:cy="42.407078"
     inkscape:window-x="0"
     inkscape:window-y="30"
     inkscape:window-maximized="1"
     inkscape:current-layer="g5389" /><g
     id="g4523"
     inkscape:groupmode="layer"
     inkscape:label="cello"
     transform="matrix(1.3333333,0,0,-1.3333333,0,85.333333)"><g
       id="g5380"
       transform="rotate(43.133299,6.5178084,69.841879)"
       style="stroke:#9d9ca3;stroke-opacity:0.94444442;stroke-width:0.54975001;stroke-miterlimit:4;stroke-dasharray:none;opacity:0.737"><g
         id="g5389"
         transform="rotate(2.0800536,41.981123,6.0133269)"><path
           inkscape:connector-curvature="0"
           style="opacity:1;fill:#c7c8c8;fill-opacity:1;fill-rule:evenodd;stroke:#9d9ca3;stroke-width:0.73299998;stroke-linecap:butt;stroke-linejoin:bevel;stroke-miterlimit:4;stroke-dasharray:none;stroke-dashoffset:0;stroke-opacity:0.94444442;paint-order:normal"
           d="m -34.847656,42.576172 c -0.375593,0 -0.677735,0.302141 -0.677735,0.677734 v 0.453125 c 0,0.375593 0.302142,0.677735 0.677735,0.677735 h 0.0957 v 2.4375 h 1.150391 v -2.4375 h 6.123046 v 2.373046 h 1.150391 v -2.373046 h 6.125 v 2.341796 h 1.150391 v -2.341796 h 6.126953 v 2.533203 h 1.152343 v -2.533203 h 6.1250005 v 2.4375 h 1.1503906 v -2.4375 h 6.125 v 2.4375 h 1.1523438 v -2.4375 h 1.6953125 c 0.3755932,0 0.6777344,-0.302142 0.6777344,-0.677735 v -0.453125 c -1e-7,-0.375593 -0.3021412,-0.677734 -0.6777344,-0.677734 z"
           transform="matrix(0.75000002,0,0,-0.75000002,0,64.000001)"
           id="rect5358" /><path
           transform="matrix(0.75000002,0,0,-0.75000002,0,64.000001)"
           inkscape:connector-curvature="0"
           style="opacity:1;fill:url(#linearGradient5253);fill-opacity:1;fill-rule:evenodd;stroke:#9d9ca3;stroke-width:0.73299998;stroke-linecap:butt;stroke-linejoin:bevel;stroke-miterlimit:4;stroke-dasharray:none;stroke-dashoffset:0;stroke-opacity:0.94444442;paint-order:normal"
           d="m -47.958984,46.025391 c -1.428495,-6.32e-4 -2.579393,1.149629 -2.580078,2.578125 l -0.002,3.880859 c -6.3e-4,1.428497 1.149629,2.579393 2.578125,2.580078 l 96.898438,0.04687 c 1.428497,6.31e-4 2.577441,-1.147676 2.578125,-2.576172 l 0.002,-3.882812 c 3.43e-4,-0.714248 -0.284157,-1.359883 -0.75,-1.826172 -0.465843,-0.466291 -1.109972,-0.753562 -1.824219,-0.753906 l -7.070312,-0.0039 c 0.200714,0.381408 0.32838,0.808043 0.332031,1.265625 l 0.01563,1.929688 c 0.01227,1.538108 -1.241186,2.811949 -2.779297,2.824219 l -8.816406,0.07031 c -1.538111,0.01227 -2.81195,-1.241186 -2.824219,-2.779297 l -0.01563,-1.929687 c -0.004,-0.504628 0.139184,-0.974182 0.373047,-1.386719 L 1.6269531,46.048828 v 1.478516 a 2.4406781,2.4406781 0 0 1 1.5820313,2.28125 2.4406781,2.4406781 0 0 1 -2.43945315,2.439453 2.4406781,2.4406781 0 0 1 -2.44140625,-2.439453 2.4406781,2.4406781 0 0 1 1.58203125,-2.283203 v -1.476563 l -5.55859375,-0.002 v 1.480469 a 2.4406781,2.4406781 0 0 1 1.5820313,2.28125 2.4406781,2.4406781 0 0 1 -2.4414063,2.439453 2.4406781,2.4406781 0 0 1 -2.4394531,-2.439453 2.4406781,2.4406781 0 0 1 1.5820312,-2.283203 v -1.480469 l -5.5585936,-0.002 v 1.484375 a 2.4406781,2.4406781 0 0 1 1.582031,2.28125 2.4406781,2.4406781 0 0 1 -2.441406,2.439453 2.4406781,2.4406781 0 0 1 -2.441406,-2.439453 2.4406781,2.4406781 0 0 1 1.582031,-2.283203 v -1.484375 l -5.558594,-0.002 v 1.488282 a 2.4406781,2.4406781 0 0 1 1.582031,2.28125 2.4406781,2.4406781 0 0 1 -2.439453,2.439453 2.4406781,2.4406781 0 0 1 -2.441406,-2.439453 2.4406781,2.4406781 0 0 1 1.582031,-2.283203 v -1.486329 l -5.558593,-0.0039 v 1.492188 a 2.4406781,2.4406781 0 0 1 1.582031,2.28125 2.4406781,2.4406781 0 0 1 -2.441407,2.439453 2.4406781,2.4406781 0 0 1 -2.439453,-2.439453 2.4406781,2.4406781 0 0 1 1.582032,-2.283203 v -1.490235 l -5.558594,-0.0039 v 1.496094 a 2.4406781,2.4406781 0 0 1 1.582031,2.28125 2.4406781,2.4406781 0 0 1 -2.441406,2.439453 2.4406781,2.4406781 0 0 1 -2.441406,-2.439453 2.4406781,2.4406781 0 0 1 1.582031,-2.283203 V 46.03125 Z m 87.349609,0.142578 -8.814453,0.07031 c -0.671837,0.0055 -1.185046,0.525431 -1.179688,1.197266 l 0.01758,1.929687 c 0.0055,0.671838 0.523476,1.183093 1.195313,1.177735 l 8.816406,-0.07031 c 0.671838,-0.0055 1.183093,-0.525433 1.177735,-1.197265 l -0.01563,-1.927735 c -0.0027,-0.335918 -0.133074,-0.632562 -0.347657,-0.84375 -0.214585,-0.211189 -0.51369,-0.338616 -0.849609,-0.335937 z m -4.113281,2.046875 a 2.0062019,0.46341406 1.096199 0 1 0.339844,0.002 2.0062019,0.46341406 1.096199 0 1 1.890624,0.386719 2.0062019,0.46341406 1.096199 0 1 0.05859,0.125 2.0062019,0.46341406 1.096199 0 1 -2.060547,0.414062 2.0062019,0.46341406 1.096199 0 1 -1.949218,-0.513672 2.0062019,0.46341406 1.096199 0 1 1.720703,-0.414062 z"
           id="rect5243" /><path
           style="opacity:1;fill:#d0cfcd;fill-opacity:1;fill-rule:evenodd;stroke:#9d9ca3;stroke-width:0.54975003;stroke-linecap:butt;stroke-linejoin:bevel;stroke-miterlimit:4;stroke-dasharray:none;stroke-dashoffset:0;stroke-opacity:0.94444442;paint-order:normal"
           d="m 8.41556,30.708457 h 0.9124916 c 0.3033123,0 1.3869884,-0.773428 1.3869884,-1.07674 v -7.117435 c 0,-0.303313 -1.0836761,-1.22274 -1.3869884,-1.22274 H 8.41556 c -0.3033123,0 -0.5474951,0.244183 -0.5474951,0.547495 v 8.321925 c 0,0.303312 0.2441828,0.547495 0.5474951,0.547495 z"
           id="rect5287"
           inkscape:connector-curvature="0"
           sodipodi:nodetypes="sssssssss" /><path
           sodipodi:nodetypes="sssssssss"
           inkscape:connector-curvature="0"
           id="path5290"
           d="m 18.63295,30.708457 h -0.912491 c -0.303312,0 -1.386988,-0.773428 -1.386988,-1.07674 v -7.117435 c 0,-0.303313 1.083676,-1.22274 1.386988,-1.22274 h 0.912491 c 0.303313,0 0.547496,0.244183 0.547496,0.547495 v 8.321925 c 0,0.303312 -0.244183,0.547495 -0.547496,0.547495 z"
           style="opacity:1;fill:#d0cfcd;fill-opacity:1;fill-rule:evenodd;stroke:#9d9ca3;stroke-width:0.54975003;stroke-linecap:butt;stroke-linejoin:bevel;stroke-miterlimit:4;stroke-dasharray:none;stroke-dashoffset:0;stroke-opacity:0.94444442;paint-order:normal" /><path
           inkscape:connector-curvature="0"
           style="opacity:1;fill:url(#linearGradient5294);fill-opacity:1;fill-rule:evenodd;stroke:#9d9ca3;stroke-width:0.73299998;stroke-linecap:butt;stroke-linejoin:bevel;stroke-miterlimit:4;stroke-dasharray:none;stroke-dashoffset:0;stroke-opacity:0.94444442;paint-order:normal"
           d="m 14.285156,45.738281 v 9.673828 l 7.513672,0.0039 v -9.673828 z"
           transform="matrix(0.75000002,0,0,-0.75000002,0,64.000001)"
           id="path5292" /><rect
           style="opacity:1;fill:#d3d4d6;fill-opacity:1;fill-rule:evenodd;stroke:#9d9ca3;stroke-width:0.17475;stroke-linecap:butt;stroke-linejoin:bevel;stroke-miterlimit:4;stroke-dasharray:none;stroke-dashoffset:0;stroke-opacity:0.94444442;paint-order:normal"
           id="rect5302"
           width="0.13559322"
           height="9.3728819"
           x="9.2711897"
           y="-30.694916"
           transform="scale(1,-1)"
           ry="0.067430802" /><rect
           ry="0.067430802"
           transform="scale(1,-1)"
           y="-30.694916"
           x="17.66102"
           height="9.3728819"
           width="0.13559322"
           id="rect5304"
           style="opacity:1;fill:#d3d4d6;fill-opacity:1;fill-rule:evenodd;stroke:#9d9ca3;stroke-width:0.17475;stroke-linecap:butt;stroke-linejoin:bevel;stroke-miterlimit:4;stroke-dasharray:none;stroke-dashoffset:0;stroke-opacity:0.94444442;paint-order:normal" /></g></g></g></svg>