<?xml version="1.0" encoding="UTF-8" standalone="no"?>
<!-- Created with Inkscape (http://www.inkscape.org/) -->

<svg
   xmlns:dc="http://purl.org/dc/elements/1.1/"
   xmlns:cc="http://creativecommons.org/ns#"
   xmlns:rdf="http://www.w3.org/1999/02/22-rdf-syntax-ns#"
   xmlns:svg="http://www.w3.org/2000/svg"
   xmlns="http://www.w3.org/2000/svg"
   xmlns:xlink="http://www.w3.org/1999/xlink"
   xmlns:sodipodi="http://sodipodi.sourceforge.net/DTD/sodipodi-0.dtd"
   xmlns:inkscape="http://www.inkscape.org/namespaces/inkscape"
   version="1.1"
   id="svg4515"
   xml:space="preserve"
   width="85.333336"
   height="85.333336"
   viewBox="0 0 85.333336 85.333336"
   sodipodi:docname="flute.svg"
   inkscape:version="0.92.1 unknown"><metadata
     id="metadata4521"><rdf:RDF><cc:Work
         rdf:about=""><dc:format>image/svg+xml</dc:format><dc:type
           rdf:resource="http://purl.org/dc/dcmitype/StillImage" /><dc:title></dc:title></cc:Work></rdf:RDF></metadata><defs
     id="defs4519"><linearGradient
       inkscape:collect="always"
       id="linearGradient8512"><stop
         style="stop-color:#000000;stop-opacity:1"
         offset="0"
         id="stop8508" /><stop
         style="stop-color:#d4d4d4;stop-opacity:0.73725492"
         offset="1"
         id="stop8510" /></linearGradient><linearGradient
       inkscape:collect="always"
       id="linearGradient8504"><stop
         style="stop-color:#000000;stop-opacity:1;"
         offset="0"
         id="stop8500" /><stop
         style="stop-color:#e6e6e6;stop-opacity:1"
         offset="1"
         id="stop8502" /></linearGradient><clipPath
       clipPathUnits="userSpaceOnUse"
       id="clipPath4531"><path
         d="M 0,64 H 64 V 0 H 0 Z"
         id="path4529"
         inkscape:connector-curvature="0" /></clipPath><clipPath
       clipPathUnits="userSpaceOnUse"
       id="clipPath4543"><path
         d="m 23.896,41.479 c -0.522,-0.903 -1.011,-2.628 -1.464,-4.82 v 0 c 0.009,-0.005 0.019,-0.007 0.028,-0.011 v 0 c 1.683,-0.97 1.994,-3.579 0.703,-5.82 v 0 c -1.295,-2.242 -3.709,-3.273 -5.392,-2.303 v 0 c -0.152,0.087 -0.279,0.201 -0.407,0.314 v 0 c -3.367,-2.294 -6.071,-4.496 -7.039,-6.172 v 0 C 6.923,16.774 10.359,8.429 17.373,4.373 v 0 c 7.01,-4.049 15.96,-2.848 19.362,3.045 v 0 c 0.967,1.676 1.524,5.117 1.826,9.178 v 0 c -0.163,0.056 -0.326,0.108 -0.479,0.196 v 0 c -1.682,0.97 -1.997,3.585 -0.695,5.828 v 0 c 1.291,2.241 3.705,3.27 5.389,2.3 v 0 c 0.008,-0.004 0.013,-0.011 0.02,-0.016 v 0 c 1.673,1.489 2.92,2.775 3.442,3.679 v 0 c 2.862,4.943 -0.103,12.002 -5.995,15.403 v 0 c -2.337,1.349 -4.942,2.012 -7.413,2.012 v 0 c -3.76,0.001 -7.209,-1.534 -8.934,-4.519"
         id="path4541"
         inkscape:connector-curvature="0" /></clipPath><clipPath
       clipPathUnits="userSpaceOnUse"
       id="clipPath4551"><path
         d="M 10.9893,43.998 H 45.3418 V 3.99805 H 10.9893 Z"
         id="path4549"
         inkscape:connector-curvature="0" /></clipPath><clipPath
       clipPathUnits="userSpaceOnUse"
       id="clipPath4567"><path
         d="M 9,45.998 H 43.3301 V 3.74805 L 9,3.74805 Z"
         id="path4565"
         inkscape:connector-curvature="0" /></clipPath><clipPath
       clipPathUnits="userSpaceOnUse"
       id="clipPath4583"><path
         d="M 0,64 H 64 V 0 H 0 Z"
         id="path4581"
         inkscape:connector-curvature="0" /></clipPath><clipPath
       clipPathUnits="userSpaceOnUse"
       id="clipPath4595"><path
         d="m 46.628,62.113 c -0.746,-1.295 -0.582,-2.862 0.304,-3.967 v 0 L 28.916,29.082 32.995,26.726 49.157,56.865 c 1.397,-0.213 2.842,0.422 3.588,1.72 v 0 c 0.975,1.685 0.401,3.849 -1.289,4.822 v 0 c -0.557,0.321 -1.165,0.473 -1.765,0.473 v 0 c -1.222,0 -2.41,-0.633 -3.063,-1.767 M 16.332,4.922 14.522,1.786 c 0,0 -0.587,-1.019 0.432,-1.605 v 0 C 15.165,0.06 15.358,0.007 15.53,0 v 0 h 0.08 c 0.611,0.024 0.95,0.613 0.95,0.613 v 0 l 1.81,3.135 9.449,14.008 -4.081,2.355 z"
         id="path4593"
         inkscape:connector-curvature="0" /></clipPath><clipPath
       clipPathUnits="userSpaceOnUse"
       id="clipPath4607"><path
         d="m 45.3506,64 h 6.4473 v -9.0972 h -6.4473 z"
         id="path4605"
         inkscape:connector-curvature="0" /></clipPath><clipPath
       clipPathUnits="userSpaceOnUse"
       id="clipPath4623"><path
         d="m 14.354,6.45508 h 5.5786 V -9.76562e-4 H 14.354 Z"
         id="path4621"
         inkscape:connector-curvature="0" /></clipPath><clipPath
       clipPathUnits="userSpaceOnUse"
       id="clipPath4639"><path
         d="M 0,64 H 64 V 0 H 0 Z"
         id="path4637"
         inkscape:connector-curvature="0" /></clipPath><clipPath
       clipPathUnits="userSpaceOnUse"
       id="clipPath4647"><path
         d="M 17.1079,27.6953 H 34.3711 V 12.1543 H 17.1079 Z"
         id="path4645"
         inkscape:connector-curvature="0" /></clipPath><clipPath
       clipPathUnits="userSpaceOnUse"
       id="clipPath4663"><path
         d="m 25.7388,25.6182 h 5.2578 v -4.3985 h -5.2578 z"
         id="path4661"
         inkscape:connector-curvature="0" /></clipPath><clipPath
       clipPathUnits="userSpaceOnUse"
       id="clipPath4679"><path
         d="M 23.7388,58.146 H 48.0469 V 18.9336 H 23.7388 Z"
         id="path4677"
         inkscape:connector-curvature="0" /></clipPath><linearGradient
       inkscape:collect="always"
       xlink:href="#linearGradient8504"
       id="linearGradient8506"
       x1="4.4285011"
       y1="29.906046"
       x2="4.270741"
       y2="23.144878"
       gradientUnits="userSpaceOnUse"
       gradientTransform="translate(0.56040148,-0.56456808)" /><linearGradient
       inkscape:collect="always"
       xlink:href="#linearGradient8512"
       id="linearGradient8514"
       x1="17.747967"
       y1="45.679485"
       x2="17.451643"
       y2="55.486034"
       gradientUnits="userSpaceOnUse"
       gradientTransform="matrix(0.75000002,0,0,-0.75000002,-0.23437335,64.000874)" /></defs><sodipodi:namedview
     pagecolor="#ffffff"
     bordercolor="#666666"
     borderopacity="1"
     objecttolerance="10"
     gridtolerance="10"
     guidetolerance="10"
     inkscape:pageopacity="0"
     inkscape:pageshadow="2"
     inkscape:window-width="1920"
     inkscape:window-height="1017"
     id="namedview4517"
     showgrid="false"
     inkscape:zoom="5.6568542"
     inkscape:cx="112.54061"
     inkscape:cy="28.140701"
     inkscape:window-x="0"
     inkscape:window-y="30"
     inkscape:window-maximized="1"
     inkscape:current-layer="g5389" /><g
     id="g4523"
     inkscape:groupmode="layer"
     inkscape:label="cello"
     transform="matrix(1.3333333,0,0,-1.3333333,0,85.333333)"><g
       id="g5380"
       transform="rotate(43.133299,6.5178084,69.841879)"
       style="stroke:#9d9ca3;stroke-opacity:0.94444442;stroke-width:0.54975001;stroke-miterlimit:4;stroke-dasharray:none;opacity:0.737"><g
         id="g5389"
         transform="rotate(2.0800536,41.981123,6.0133269)"><path
           inkscape:connector-curvature="0"
           style="opacity:1;fill:#c7c8c8;fill-opacity:1;fill-rule:evenodd;stroke:#9d9ca3;stroke-width:0.54974997;stroke-linecap:butt;stroke-linejoin:bevel;stroke-miterlimit:4;stroke-dasharray:none;stroke-dashoffset:0;stroke-opacity:0.94444442;paint-order:normal"
           d="m -25.573072,32.112651 c -0.281695,0 -0.508301,-0.226606 -0.508301,-0.5083 v -0.339844 c 0,-0.281695 0.226606,-0.508301 0.508301,-0.508301 h 0.07177 v -1.828125 h 0.862793 v 1.828125 h 4.592285 v -1.779785 h 0.862793 v 1.779785 h 4.59375 v -1.756347 h 0.862794 v 1.756347 h 4.5952144 v -1.899903 h 0.8642573 v 1.899903 h 4.5937505 v -1.828125 h 0.8627929 v 1.828125 h 4.5937502 v -1.828125 h 0.8642578 v 1.828125 h 1.2714845 c 0.2816949,0 0.5083008,0.226606 0.5083008,0.508301 v 0.339844 c -1e-7,0.281694 -0.2266059,0.5083 -0.5083008,0.5083 z"
           id="rect5358" /><path
           inkscape:connector-curvature="0"
           style="opacity:1;fill:url(#linearGradient8506);fill-opacity:1;fill-rule:evenodd;stroke:#9d9ca3;stroke-width:0.54974997;stroke-linecap:butt;stroke-linejoin:bevel;stroke-miterlimit:4;stroke-dasharray:none;stroke-dashoffset:0;stroke-opacity:0.94444442;paint-order:normal"
           d="m -35.408841,29.445192 c -1.071371,4.74e-4 -1.934545,-0.862221 -1.935059,-1.933593 l -0.0015,-2.910645 c -4.72e-4,-1.071373 0.862222,-1.934545 1.933594,-1.935058 l 72.67383,-0.03515 c 1.071373,-4.73e-4 1.933081,0.860757 1.933594,1.932129 l 0.0015,2.912109 c 2.58e-4,0.535686 -0.213117,1.019913 -0.5625,1.369629 -0.349382,0.349719 -0.832479,0.565172 -1.368164,0.56543 l -5.302734,0.0029 c 0.150535,-0.286056 0.246285,-0.606032 0.249023,-0.949219 l 0.01172,-1.447266 c 0.0092,-1.153581 -0.93089,-2.108962 -2.084473,-2.118164 l -6.612305,-0.05273 c -1.153583,-0.0092 -2.108962,0.93089 -2.118164,2.084473 l -0.01172,1.447265 c -0.003,0.378471 0.104388,0.730637 0.279786,1.04004 l -19.8969724,0.01025 v -1.108887 a 1.8305086,1.8305086 0 0 0 1.1865235,-1.710938 1.8305086,1.8305086 0 0 0 -1.8295902,-1.82959 1.8305086,1.8305086 0 0 0 -1.83105463,1.82959 1.8305086,1.8305086 0 0 0 1.18652316,1.712402 l 0,1.107423 -4.16894493,0.0015 V 28.31874 a 1.8305086,1.8305086 0 0 0 1.1865235,-1.710938 1.8305086,1.8305086 0 0 0 -1.8310548,-1.82959 1.8305086,1.8305086 0 0 0 -1.8295898,1.82959 1.8305086,1.8305086 0 0 0 1.1865234,1.712403 v 1.110351 l -4.1689453,0.0015 v -1.113281 a 1.8305086,1.8305086 0 0 0 1.1865233,-1.710937 1.8305086,1.8305086 0 0 0 -1.8310559,-1.82959 1.8305086,1.8305086 0 0 0 -1.8310549,1.82959 1.8305086,1.8305086 0 0 0 1.186523,1.712402 v 1.113281 l -4.168946,0.0015 V 28.31881 a 1.8305086,1.8305086 0 0 0 1.186524,-1.710938 1.8305086,1.8305086 0 0 0 -1.82959,-1.82959 1.8305086,1.8305086 0 0 0 -1.831055,1.82959 1.8305086,1.8305086 0 0 0 1.186524,1.712402 v 1.114747 l -4.168945,0.0029 V 28.31878 a 1.8305086,1.8305086 0 0 0 1.186523,-1.710937 1.8305086,1.8305086 0 0 0 -1.831055,-1.82959 1.8305086,1.8305086 0 0 0 -1.82959,1.82959 1.8305086,1.8305086 0 0 0 1.186524,1.712402 v 1.117676 l -4.168946,0.0029 v -1.12207 a 1.8305086,1.8305086 0 0 0 1.186524,-1.710938 1.8305086,1.8305086 0 0 0 -1.831055,-1.82959 1.8305086,1.8305086 0 0 0 -1.831055,1.82959 1.8305086,1.8305086 0 0 0 1.186524,1.712402 v 1.12051 z m 65.512208,-0.106933 -6.61084,-0.05273 c -0.503877,-0.0041 -0.888784,-0.394073 -0.884766,-0.897949 l 0.01319,-1.447265 c 0.0041,-0.503879 0.392607,-0.88732 0.896485,-0.883302 l 6.612305,0.05273 c 0.503878,0.0041 0.88732,0.394075 0.883301,0.897949 l -0.01172,1.445801 c -0.002,0.251938 -0.09981,0.474421 -0.260743,0.632812 -0.160939,0.158392 -0.385268,0.253962 -0.637207,0.251953 z m -3.084961,-1.535156 a 0.34756055,1.5046515 88.903801 0 0 0.254883,-0.0015 0.34756055,1.5046515 88.903801 0 0 1.417969,-0.29004 0.34756055,1.5046515 88.903801 0 0 0.04394,-0.09375 0.34756055,1.5046515 88.903801 0 0 -1.54541,-0.310546 0.34756055,1.5046515 88.903801 0 0 -1.461914,0.385254 0.34756055,1.5046515 88.903801 0 0 1.290527,0.310546 z"
           id="rect5243" /><path
           style="opacity:1;fill:#d0cfcd;fill-opacity:1;fill-rule:evenodd;stroke:#9d9ca3;stroke-width:0.54975003;stroke-linecap:butt;stroke-linejoin:bevel;stroke-miterlimit:4;stroke-dasharray:none;stroke-dashoffset:0;stroke-opacity:0.94444442;paint-order:normal"
           d="m 8.41556,30.708457 h 0.9124916 c 0.3033123,0 1.3869884,-0.773428 1.3869884,-1.07674 v -7.117435 c 0,-0.303313 -1.0836761,-1.22274 -1.3869884,-1.22274 H 8.41556 c -0.3033123,0 -0.5474951,0.244183 -0.5474951,0.547495 v 8.321925 c 0,0.303312 0.2441828,0.547495 0.5474951,0.547495 z"
           id="rect5287"
           inkscape:connector-curvature="0"
           sodipodi:nodetypes="sssssssss" /><path
           sodipodi:nodetypes="sssssssss"
           inkscape:connector-curvature="0"
           id="path5290"
           d="m 18.63295,30.708457 h -0.912491 c -0.303312,0 -1.386988,-0.773428 -1.386988,-1.07674 v -7.117435 c 0,-0.303313 1.083676,-1.22274 1.386988,-1.22274 h 0.912491 c 0.303313,0 0.547496,0.244183 0.547496,0.547495 v 8.321925 c 0,0.303312 -0.244183,0.547495 -0.547496,0.547495 z"
           style="opacity:1;fill:#d0cfcd;fill-opacity:1;fill-rule:evenodd;stroke:#9d9ca3;stroke-width:0.54975003;stroke-linecap:butt;stroke-linejoin:bevel;stroke-miterlimit:4;stroke-dasharray:none;stroke-dashoffset:0;stroke-opacity:0.94444442;paint-order:normal" /><rect
           style="opacity:1;fill:#d3d4d6;fill-opacity:1;fill-rule:evenodd;stroke:#9d9ca3;stroke-width:0.17475;stroke-linecap:butt;stroke-linejoin:bevel;stroke-miterlimit:4;stroke-dasharray:none;stroke-dashoffset:0;stroke-opacity:0.94444442;paint-order:normal"
           id="rect5302"
           width="0.13559322"
           height="9.3728819"
           x="9.2711897"
           y="-30.694916"
           transform="scale(1,-1)"
           ry="0.067430802" /><rect
           ry="0.067430802"
           transform="scale(1,-1)"
           y="-30.694916"
           x="17.66102"
           height="9.3728819"
           width="0.13559322"
           id="rect5304"
           style="opacity:1;fill:#d3d4d6;fill-opacity:1;fill-rule:evenodd;stroke:#9d9ca3;stroke-width:0.17475;stroke-linecap:butt;stroke-linejoin:bevel;stroke-miterlimit:4;stroke-dasharray:none;stroke-dashoffset:0;stroke-opacity:0.94444442;paint-order:normal" /><path
           inkscape:connector-curvature="0"
           style="opacity:1;fill:url(#linearGradient8514);fill-opacity:1;fill-rule:evenodd;stroke:#9d9ca3;stroke-width:0.54974997;stroke-linecap:butt;stroke-linejoin:bevel;stroke-miterlimit:4;stroke-dasharray:none;stroke-dashoffset:0;stroke-opacity:0.94444442;paint-order:normal"
           d="m 10.479494,29.697162 v -7.255371 l 5.635254,-0.0029 v 7.255371 z"
           id="path5292" /></g></g></g></svg>