<?xml version="1.0" encoding="UTF-8" standalone="no"?>
<!-- Created with Inkscape (http://www.inkscape.org/) -->

<svg
   xmlns:dc="http://purl.org/dc/elements/1.1/"
   xmlns:cc="http://creativecommons.org/ns#"
   xmlns:rdf="http://www.w3.org/1999/02/22-rdf-syntax-ns#"
   xmlns:svg="http://www.w3.org/2000/svg"
   xmlns="http://www.w3.org/2000/svg"
   xmlns:sodipodi="http://sodipodi.sourceforge.net/DTD/sodipodi-0.dtd"
   xmlns:inkscape="http://www.inkscape.org/namespaces/inkscape"
   version="1.1"
   id="svg4504"
   xml:space="preserve"
   width="85.333336"
   height="85.333336"
   viewBox="0 0 85.333336 85.333336"
   sodipodi:docname="flute2.svg"
   inkscape:version="0.92.1 unknown"><metadata
     id="metadata4510"><rdf:RDF><cc:Work
         rdf:about=""><dc:format>image/svg+xml</dc:format><dc:type
           rdf:resource="http://purl.org/dc/dcmitype/StillImage" /><dc:title></dc:title></cc:Work></rdf:RDF></metadata><defs
     id="defs4508"><clipPath
       clipPathUnits="userSpaceOnUse"
       id="clipPath4520"><path
         d="M 0,64 H 64 V 0 H 0 Z"
         id="path4518"
         inkscape:connector-curvature="0" /></clipPath><clipPath
       clipPathUnits="userSpaceOnUse"
       id="clipPath4532"><path
         d="M 47.732,64 C 41.639,60.483 38.808,59.152 35.5,46.814 v 0 L 10.98,4.343 c 0,0 0.624,-1.514 3.398,-3.115 v 0 C 15.59,0.528 16.582,0.175 17.316,0 v 0 h 1.549 l 24.429,42.314 c 9.033,9.033 8.769,12.15 8.768,19.186 v 0 z"
         id="path4530"
         inkscape:connector-curvature="0" /></clipPath><clipPath
       clipPathUnits="userSpaceOnUse"
       id="clipPath4540"><path
         d="M 31.2686,66 H 55.5264 V 36.9834 H 31.2686 Z"
         id="path4538"
         inkscape:connector-curvature="0" /></clipPath><clipPath
       clipPathUnits="userSpaceOnUse"
       id="clipPath4556"><path
         d="m 38.6475,48.8447 h 4.665 v -3.7505 h -4.665 z"
         id="path4554"
         inkscape:connector-curvature="0" /></clipPath><clipPath
       clipPathUnits="userSpaceOnUse"
       id="clipPath4572"><path
         d="M 11.0625,64 H 53.5059 V 0 H 11.0625 Z"
         id="path4570"
         inkscape:connector-curvature="0" /></clipPath><clipPath
       clipPathUnits="userSpaceOnUse"
       id="clipPath4588"><path
         d="M 0,64 H 64 V 0 H 0 Z"
         id="path4586"
         inkscape:connector-curvature="0" /></clipPath><clipPath
       clipPathUnits="userSpaceOnUse"
       id="clipPath4596"><path
         d="m 17.0762,38 h 19.167 V 6.99902 h -19.167 z"
         id="path4594"
         inkscape:connector-curvature="0" /></clipPath></defs><sodipodi:namedview
     pagecolor="#ffffff"
     bordercolor="#666666"
     borderopacity="1"
     objecttolerance="10"
     gridtolerance="10"
     guidetolerance="10"
     inkscape:pageopacity="0"
     inkscape:pageshadow="2"
     inkscape:window-width="1920"
     inkscape:window-height="1017"
     id="namedview4506"
     showgrid="false"
     inkscape:zoom="9.3515622"
     inkscape:cx="42.666668"
     inkscape:cy="42.666668"
     inkscape:window-x="0"
     inkscape:window-y="30"
     inkscape:window-maximized="1"
     inkscape:current-layer="g4512" /><g
     id="g4512"
     inkscape:groupmode="layer"
     inkscape:label="recorder"
     transform="matrix(1.3333333,0,0,-1.3333333,0,85.333333)"><g
       id="g4514"><g
         id="g4516"
         clip-path="url(#clipPath4520)"><g
           id="g4522"
           transform="translate(14.3774,1.2275)"><path
             d="m 0,0 c 2.774,-1.602 4.397,-1.384 4.397,-1.384 l 24.52,42.47 c 9.033,9.034 8.769,12.15 8.768,19.186 l -4.33,2.5 C 27.262,59.255 24.43,57.925 21.123,45.586 L -3.397,3.116 c 0,0 0.624,-1.514 3.397,-3.116"
             style="fill:#e0a30a;fill-opacity:1;fill-rule:nonzero;stroke:none"
             id="path4524"
             inkscape:connector-curvature="0" /></g></g></g><g
       id="g4526"><g
         id="g4528"
         clip-path="url(#clipPath4532)"><g
           id="g4534"><g
             id="g4536" /><g
             id="g4548"><g
               clip-path="url(#clipPath4540)"
               id="g4546"
               style="opacity:0.14999402"><g
                 transform="translate(55.5264,59.5)"
                 id="g4544"><path
                   d="m 0,0 -11.258,6.5 -13,-22.517 11.258,-6.5 z"
                   style="fill:#7d1cc7;fill-opacity:1;fill-rule:nonzero;stroke:none"
                   id="path4542"
                   inkscape:connector-curvature="0" /></g></g></g></g><g
           id="g4550"><g
             id="g4552" /><g
             id="g4564"><g
               clip-path="url(#clipPath4556)"
               id="g4562"
               style="opacity:0.5"><g
                 transform="translate(43.3125,46.3447)"
                 id="g4560"><path
                   d="M 0,0 C -0.69,-1.196 -2.219,-1.605 -3.415,-0.915 -4.61,-0.225 -5.021,1.304 -4.33,2.5 Z"
                   style="fill:#231f20;fill-opacity:1;fill-rule:nonzero;stroke:none"
                   id="path4558"
                   inkscape:connector-curvature="0" /></g></g></g></g><g
           id="g4566"><g
             id="g4568" /><g
             id="g4580"><g
               clip-path="url(#clipPath4572)"
               id="g4578"
               style="opacity:0.30000299"><g
                 transform="translate(11.0625)"
                 id="g4576"><path
                   d="M 0,0 V 64 H 42.443 C 42.443,64 42.275,62.236 41,61.5 33.747,57.312 32.635,55.01 28.786,48.345 24.938,41.679 0.875,0 0.875,0 Z"
                   style="fill:#ffffff;fill-opacity:1;fill-rule:nonzero;stroke:none"
                   id="path4574"
                   inkscape:connector-curvature="0" /></g></g></g></g></g></g><g
       id="g4582"><g
         id="g4584"
         clip-path="url(#clipPath4588)"><g
           id="g4590"><g
             id="g4592" /><g
             id="g4604"><g
               clip-path="url(#clipPath4596)"
               id="g4602"
               style="opacity:0.30000299"><g
                 transform="translate(19.3262,9.7988)"
                 id="g4600"><path
                   d="M 0,0 C -0.717,0.414 -1.635,0.168 -2.049,-0.55 -2.463,-1.267 -2.217,-2.185 -1.5,-2.599 -0.782,-3.013 0.135,-2.767 0.549,-2.05 0.963,-1.332 0.718,-0.414 0,0 M 4.042,7 C 3.325,7.414 2.407,7.168 1.993,6.451 1.579,5.733 1.825,4.816 2.542,4.402 3.26,3.988 4.177,4.233 4.591,4.951 5.005,5.668 4.76,6.586 4.042,7 m 4.041,7 C 7.366,14.414 6.448,14.168 6.034,13.45 5.62,12.733 5.866,11.815 6.583,11.401 7.301,10.987 8.218,11.233 8.632,11.95 9.046,12.668 8.801,13.586 8.083,14 m 4.042,7 c -0.717,0.414 -1.635,0.168 -2.049,-0.549 -0.414,-0.718 -0.168,-1.635 0.549,-2.049 0.718,-0.414 1.635,-0.169 2.049,0.549 0.414,0.717 0.169,1.635 -0.549,2.049 m 4.59,4.951 c -0.414,-0.718 -1.33,-0.963 -2.049,-0.549 -0.717,0.414 -0.963,1.331 -0.549,2.049 0.414,0.717 1.332,0.963 2.049,0.549 0.719,-0.414 0.965,-1.332 0.549,-2.049"
                   style="fill:#231f20;fill-opacity:1;fill-rule:nonzero;stroke:none"
                   id="path4598"
                   inkscape:connector-curvature="0" /></g></g></g></g></g></g></g></svg>