<?xml version="1.0" encoding="UTF-8" standalone="no"?>
<!-- Created with Inkscape (http://www.inkscape.org/) -->

<svg
   xmlns:dc="http://purl.org/dc/elements/1.1/"
   xmlns:cc="http://creativecommons.org/ns#"
   xmlns:rdf="http://www.w3.org/1999/02/22-rdf-syntax-ns#"
   xmlns:svg="http://www.w3.org/2000/svg"
   xmlns="http://www.w3.org/2000/svg"
   xmlns:sodipodi="http://sodipodi.sourceforge.net/DTD/sodipodi-0.dtd"
   xmlns:inkscape="http://www.inkscape.org/namespaces/inkscape"
   version="1.1"
   id="svg8049"
   xml:space="preserve"
   width="85.333336"
   height="85.333336"
   viewBox="0 0 85.333336 85.333336"
   sodipodi:docname="guitar.svg"
   inkscape:version="0.92.1 unknown"><metadata
     id="metadata8055"><rdf:RDF><cc:Work
         rdf:about=""><dc:format>image/svg+xml</dc:format><dc:type
           rdf:resource="http://purl.org/dc/dcmitype/StillImage" /><dc:title></dc:title></cc:Work></rdf:RDF></metadata><defs
     id="defs8053"><clipPath
       clipPathUnits="userSpaceOnUse"
       id="clipPath8065"><path
         d="M 0,64 H 64 V 0 H 0 Z"
         id="path8063"
         inkscape:connector-curvature="0" /></clipPath><clipPath
       clipPathUnits="userSpaceOnUse"
       id="clipPath8077"><path
         d="m 20.373,35.059 c -1.709,-2.961 -0.627,-4.848 -1.919,-7.085 v 0 C 17.161,25.736 12.15,24.82 10.125,21.314 v 0 C 7.359,16.522 9.57,10.068 18.129,5.127 v 0 C 26.688,0.185 33.383,1.498 36.148,6.289 v 0 c 2.025,3.507 0.311,8.305 1.604,10.543 v 0 c 1.291,2.236 3.467,2.245 5.175,5.205 v 0 c 2.49,4.311 0.649,10.035 -6.769,14.318 v 0 C 32.99,38.183 30.104,39 27.642,39 v 0 C 24.338,39 21.8,37.529 20.373,35.059"
         id="path8075"
         inkscape:connector-curvature="0" /></clipPath><clipPath
       clipPathUnits="userSpaceOnUse"
       id="clipPath8085"><path
         d="M 11.7285,40.4727 H 43.9727 V 0 H 11.7285 Z"
         id="path8083"
         inkscape:connector-curvature="0" /></clipPath><clipPath
       clipPathUnits="userSpaceOnUse"
       id="clipPath8101"><path
         d="M 21.7866,33.1929 H 37.7871 V 17.1924 H 21.7866 Z"
         id="path8099"
         inkscape:connector-curvature="0" /></clipPath><clipPath
       clipPathUnits="userSpaceOnUse"
       id="clipPath8117"><path
         d="M 0,64 H 64 V 0 H 0 Z"
         id="path8115"
         inkscape:connector-curvature="0" /></clipPath><clipPath
       clipPathUnits="userSpaceOnUse"
       id="clipPath8129"><path
         d="M 19.1885,51.876 H 46.9238 V 9.83691 H 19.1885 Z"
         id="path8127"
         inkscape:connector-curvature="0" /></clipPath><clipPath
       clipPathUnits="userSpaceOnUse"
       id="clipPath8153"><path
         d="M 24.7856,30.1943 H 34.7871 V 20.1924 H 24.7856 Z"
         id="path8151"
         inkscape:connector-curvature="0" /></clipPath><clipPath
       clipPathUnits="userSpaceOnUse"
       id="clipPath8169"><path
         d="m 20.9214,62.9995 h 31.27 V 10.8379 h -31.27 z"
         id="path8167"
         inkscape:connector-curvature="0" /></clipPath><clipPath
       clipPathUnits="userSpaceOnUse"
       id="clipPath8189"><path
         d="M 16.6387,15.5205 H 27.4336 V 8.01953 H 16.6387 Z"
         id="path8187"
         inkscape:connector-curvature="0" /></clipPath></defs><sodipodi:namedview
     pagecolor="#ffffff"
     bordercolor="#666666"
     borderopacity="1"
     objecttolerance="10"
     gridtolerance="10"
     guidetolerance="10"
     inkscape:pageopacity="0"
     inkscape:pageshadow="2"
     inkscape:window-width="686"
     inkscape:window-height="480"
     id="namedview8051"
     showgrid="false"
     inkscape:zoom="2.7656249"
     inkscape:cx="42.666668"
     inkscape:cy="42.666668"
     inkscape:window-x="598"
     inkscape:window-y="189"
     inkscape:window-maximized="0"
     inkscape:current-layer="g8057" /><g
     id="g8057"
     inkscape:groupmode="layer"
     inkscape:label="guitar"
     transform="matrix(1.3333333,0,0,-1.3333333,0,85.333333)"><g
       id="g8059"><g
         id="g8061"
         clip-path="url(#clipPath8065)"><g
           id="g8067"
           transform="translate(37.752,16.832)"><path
             d="m 0,0 c 1.291,2.236 3.467,2.245 5.176,5.205 2.489,4.312 0.648,10.035 -6.771,14.317 -7.417,4.283 -13.294,3.016 -15.783,-1.295 -1.709,-2.96 -0.628,-4.848 -1.92,-7.085 -1.292,-2.239 -6.304,-3.154 -8.329,-6.661 -2.766,-4.791 -0.555,-11.245 8.003,-16.186 8.56,-4.941 15.255,-3.629 18.02,1.162 C 0.421,-7.036 -1.293,-2.237 0,0"
             style="fill:#93684e;fill-opacity:1;fill-rule:nonzero;stroke:none"
             id="path8069"
             inkscape:connector-curvature="0" /></g></g></g><g
       id="g8071"><g
         id="g8073"
         clip-path="url(#clipPath8077)"><g
           id="g8079"><g
             id="g8081" /><g
             id="g8093"><g
               clip-path="url(#clipPath8085)"
               id="g8091"
               style="opacity:0.19999701"><g
                 transform="translate(43.9727,35.625)"
                 id="g8089"><path
                   d="M 0,0 -8.878,4.848 -32.244,-35.625 H 0 Z"
                   style="fill:#231f20;fill-opacity:1;fill-rule:nonzero;stroke:none"
                   id="path8087"
                   inkscape:connector-curvature="0" /></g></g></g></g><g
           id="g8095"><g
             id="g8097" /><g
             id="g8109"><g
               clip-path="url(#clipPath8101)"
               id="g8107"
               style="opacity:0.30000299"><g
                 transform="translate(33.7852,32.1206)"
                 id="g8105"><path
                   d="m 0,0 c 3.827,-2.208 5.139,-7.1 2.927,-10.927 -2.206,-3.826 -7.099,-5.138 -10.926,-2.926 -3.823,2.207 -5.135,7.099 -2.928,10.926 C -8.717,0.896 -3.826,2.208 0,0"
                   style="fill:#e9bf54;fill-opacity:1;fill-rule:nonzero;stroke:none"
                   id="path8103"
                   inkscape:connector-curvature="0" /></g></g></g></g></g></g><g
       id="g8111"><g
         id="g8113"
         clip-path="url(#clipPath8117)"><g
           id="g8119"
           transform="translate(24.3838,9.8369)"><path
             d="m 0,0 22.54,39.039 -5.196,3 L -5.195,3 Z"
             style="fill:#93684e;fill-opacity:1;fill-rule:nonzero;stroke:none"
             id="path8121"
             inkscape:connector-curvature="0" /></g><g
           id="g8123"><g
             id="g8125" /><g
             id="g8137"><g
               clip-path="url(#clipPath8129)"
               id="g8135"
               style="opacity:0.5"><g
                 transform="translate(24.3838,9.8369)"
                 id="g8133"><path
                   d="m 0,0 22.54,39.039 -5.196,3 L -5.195,3 Z"
                   style="fill:#231f20;fill-opacity:1;fill-rule:nonzero;stroke:none"
                   id="path8131"
                   inkscape:connector-curvature="0" /></g></g></g></g><g
           id="g8139"
           transform="translate(48.7275,64)"><path
             d="M 0,0 C 0,0 -6.388,-5.975 -7.204,-7.388 -8.021,-8.801 -7,-12.124 -7,-12.124 l 5.196,-3.001 c 0,0 3.388,0.779 4.203,2.192 C 3.216,-11.52 5.196,-3 5.196,-3 Z"
             style="fill:#93684e;fill-opacity:1;fill-rule:nonzero;stroke:none"
             id="path8141"
             inkscape:connector-curvature="0" /></g><g
           id="g8143"
           transform="translate(32.2861,29.5234)"><path
             d="M 0,0 C 2.392,-1.381 3.211,-4.438 1.83,-6.83 0.45,-9.222 -2.608,-10.041 -5,-8.66 -7.391,-7.279 -8.21,-4.222 -6.83,-1.83 -5.449,0.561 -2.391,1.381 0,0"
             style="fill:#93684e;fill-opacity:1;fill-rule:nonzero;stroke:none"
             id="path8145"
             inkscape:connector-curvature="0" /></g><g
           id="g8147"><g
             id="g8149" /><g
             id="g8161"><g
               clip-path="url(#clipPath8153)"
               id="g8159"
               style="opacity:0.75"><g
                 transform="translate(32.2861,29.5234)"
                 id="g8157"><path
                   d="M 0,0 C 2.392,-1.381 3.211,-4.438 1.83,-6.83 0.45,-9.222 -2.608,-10.041 -5,-8.66 -7.391,-7.279 -8.21,-4.222 -6.83,-1.83 -5.449,0.561 -2.391,1.381 0,0"
                   style="fill:#231f20;fill-opacity:1;fill-rule:nonzero;stroke:none"
                   id="path8155"
                   inkscape:connector-curvature="0" /></g></g></g></g><g
           id="g8163"><g
             id="g8165" /><g
             id="g8177"><g
               clip-path="url(#clipPath8169)"
               id="g8175"
               style="opacity:0.14999402"><g
                 transform="translate(22.6514,10.8379)"
                 id="g8173"><path
                   d="M 0,0 29.54,51.163 27.81,52.162 -1.73,0.999 Z"
                   style="fill:#ffffff;fill-opacity:1;fill-rule:nonzero;stroke:none"
                   id="path8171"
                   inkscape:connector-curvature="0" /></g></g></g></g><g
           id="g8179"
           transform="translate(26.6836,10.8193)"><path
             d="M 0,0 C 0.717,-0.414 0.963,-1.332 0.549,-2.05 0.135,-2.767 -0.783,-3.013 -1.5,-2.599 l -7.794,4.501 c -0.718,0.413 -0.964,1.331 -0.55,2.049 0.415,0.717 1.332,0.963 2.05,0.549 z"
             style="fill:#93684e;fill-opacity:1;fill-rule:nonzero;stroke:none"
             id="path8181"
             inkscape:connector-curvature="0" /></g><g
           id="g8183"><g
             id="g8185" /><g
             id="g8197"><g
               clip-path="url(#clipPath8189)"
               id="g8195"
               style="opacity:0.5"><g
                 transform="translate(26.6836,10.8193)"
                 id="g8193"><path
                   d="M 0,0 C 0.717,-0.414 0.963,-1.332 0.549,-2.05 0.135,-2.767 -0.783,-3.013 -1.5,-2.599 l -7.794,4.501 c -0.718,0.413 -0.964,1.331 -0.55,2.049 0.415,0.717 1.332,0.963 2.05,0.549 z"
                   style="fill:#ffffff;fill-opacity:1;fill-rule:nonzero;stroke:none"
                   id="path8191"
                   inkscape:connector-curvature="0" /></g></g></g></g></g></g></g></svg>