<?xml version="1.0" encoding="UTF-8" standalone="no"?>
<!-- Created with Inkscape (http://www.inkscape.org/) -->

<svg
   xmlns:dc="http://purl.org/dc/elements/1.1/"
   xmlns:cc="http://creativecommons.org/ns#"
   xmlns:rdf="http://www.w3.org/1999/02/22-rdf-syntax-ns#"
   xmlns:svg="http://www.w3.org/2000/svg"
   xmlns="http://www.w3.org/2000/svg"
   xmlns:sodipodi="http://sodipodi.sourceforge.net/DTD/sodipodi-0.dtd"
   xmlns:inkscape="http://www.inkscape.org/namespaces/inkscape"
   version="1.1"
   id="svg8742"
   xml:space="preserve"
   width="85.333336"
   height="85.333336"
   viewBox="0 0 85.333336 85.333336"
   sodipodi:docname="saxophone.svg"
   inkscape:version="0.92.1 unknown"><metadata
     id="metadata8748"><rdf:RDF><cc:Work
         rdf:about=""><dc:format>image/svg+xml</dc:format><dc:type
           rdf:resource="http://purl.org/dc/dcmitype/StillImage" /><dc:title></dc:title></cc:Work></rdf:RDF></metadata><defs
     id="defs8746"><clipPath
       clipPathUnits="userSpaceOnUse"
       id="clipPath8758"><path
         d="M 0,64 H 64 V 0 H 0 Z"
         id="path8756"
         inkscape:connector-curvature="0" /></clipPath><clipPath
       clipPathUnits="userSpaceOnUse"
       id="clipPath8770"><path
         d="M 36.45,50.93 C 31.96,43.152 22.639,27.01 15.63,14.869 v 0 C 15.214,14.15 14.72,13.661 14.04,14.054 v 0 c -0.681,0.395 -0.556,1.098 -0.142,1.815 v 0 c 1.041,1.805 0.229,0.444 2.229,3.908 v 0 C 18.857,24.504 23.787,33 23.787,33 v 0 H 3.622 c 0,0 2,-2.999 2,-5 v 0 c 0,-1.562 -0.011,-2.439 -1.887,-5.686 v 0 C 2.675,20.477 3.255,21.435 2.256,19.703 v 0 C -1.058,13.964 0.858,6.655 6.306,3.509 v 0 c 5.45,-3.146 12.553,-1.044 15.848,4.707 v 0 c 3.48,6.073 23.378,40.444 24.878,43.043 v 0 c 0.357,0.613 0.799,0.481 1.58,-0.872 v 0 c 0.873,-1.512 2.206,-2.262 3.763,-2.262 v 0 c 0.999,0 3.065,-10e-4 6.043,0 v 0 c 2.976,0 4.976,3.999 4.976,3.999 v 0 H 52.227 C 49.984,56.008 49.166,58 45.166,58 v 0 C 41.25,58 38.908,55.188 36.45,50.93"
         id="path8768"
         inkscape:connector-curvature="0" /></clipPath><clipPath
       clipPathUnits="userSpaceOnUse"
       id="clipPath8778"><path
         d="M 8.22803,62 H 55.2783 V 2.04785 H 8.22803 Z"
         id="path8776"
         inkscape:connector-curvature="0" /></clipPath><clipPath
       clipPathUnits="userSpaceOnUse"
       id="clipPath8798"><path
         d="M 3,33 H 24 V 29 H 3 Z"
         id="path8796"
         inkscape:connector-curvature="0" /></clipPath><clipPath
       clipPathUnits="userSpaceOnUse"
       id="clipPath8814"><path
         d="M 8,46.3931 H 43.7734 V 9 H 8 Z"
         id="path8812"
         inkscape:connector-curvature="0" /></clipPath><clipPath
       clipPathUnits="userSpaceOnUse"
       id="clipPath8830"><path
         d="M 0,64 H 64 V 0 H 0 Z"
         id="path8828"
         inkscape:connector-curvature="0" /></clipPath><clipPath
       clipPathUnits="userSpaceOnUse"
       id="clipPath8850"><path
         d="M 6.93115,14 H 12.9321 V 7.99902 H 6.93115 Z"
         id="path8848"
         inkscape:connector-curvature="0" /></clipPath></defs><sodipodi:namedview
     pagecolor="#ffffff"
     bordercolor="#666666"
     borderopacity="1"
     objecttolerance="10"
     gridtolerance="10"
     guidetolerance="10"
     inkscape:pageopacity="0"
     inkscape:pageshadow="2"
     inkscape:window-width="686"
     inkscape:window-height="480"
     id="namedview8744"
     showgrid="false"
     inkscape:zoom="2.7656249"
     inkscape:cx="42.666668"
     inkscape:cy="42.666668"
     inkscape:window-x="664"
     inkscape:window-y="184"
     inkscape:window-maximized="0"
     inkscape:current-layer="g8750" /><g
     id="g8750"
     inkscape:groupmode="layer"
     inkscape:label="saxophone"
     transform="matrix(1.3333333,0,0,-1.3333333,0,85.333333)"><g
       id="g8752"><g
         id="g8754"
         clip-path="url(#clipPath8758)"><g
           id="g8760"
           transform="translate(2.2559,19.7031)"><path
             d="m 0,0 c -3.314,-5.738 -1.398,-13.049 4.05,-16.194 5.45,-3.147 12.554,-1.044 15.848,4.707 3.48,6.073 23.378,40.444 24.878,43.042 0.357,0.613 0.798,0.482 1.579,-0.871 0.874,-1.512 2.207,-2.263 3.764,-2.263 0.999,0 3.066,0 6.043,0 2.977,0 4.977,4 4.977,4 H 49.971 c -2.242,3.884 -3.061,5.876 -7.061,5.876 -3.916,0 -6.258,-2.812 -8.716,-7.07 -4.49,-7.778 -13.81,-23.92 -20.82,-36.061 -0.415,-0.72 -0.909,-1.208 -1.59,-0.814 -0.681,0.393 -0.556,1.096 -0.142,1.814 1.042,1.805 0.23,0.444 2.23,3.908 2.729,4.727 7.659,13.223 7.659,13.223 H 1.366 c 0,0 2,-2.999 2,-5 C 3.366,6.735 3.354,5.857 1.479,2.61 0.419,0.773 1,1.732 0,0"
             style="fill:#e0a30a;fill-opacity:1;fill-rule:evenodd;stroke:none"
             id="path8762"
             inkscape:connector-curvature="0" /></g></g></g><g
       id="g8764"><g
         id="g8766"
         clip-path="url(#clipPath8770)"><g
           id="g8772"><g
             id="g8774" /><g
             id="g8786"><g
               clip-path="url(#clipPath8778)"
               id="g8784"
               style="opacity:0.5"><g
                 transform="translate(20.7056,2.0479)"
                 id="g8782"><path
                   d="m 0,0 c 6,0 25.855,48.367 27.419,51.077 1.566,2.711 4.018,1.864 6.727,0.299 2.711,-1.564 -8.041,18.038 -16.931,2.639 C 16.688,53.103 -5.076,12.821 -5.076,12.821 -10.196,3.952 -12.478,0 -12.478,0 Z"
                   style="fill:#f7c90b;fill-opacity:1;fill-rule:evenodd;stroke:none"
                   id="path8780"
                   inkscape:connector-curvature="0" /></g></g></g></g><g
           id="g8788"
           transform="translate(63.3945,52.124)"><path
             d="m 0,0 h -8.71 l -2.31,-4 H 0 Z"
             style="fill:#93684e;fill-opacity:1;fill-rule:evenodd;stroke:none"
             id="path8790"
             inkscape:connector-curvature="0" /></g><g
           id="g8792"><g
             id="g8794" /><g
             id="g8806"><g
               clip-path="url(#clipPath8798)"
               id="g8804"
               style="opacity:0.5"><g
                 transform="translate(22,29)"
                 id="g8802"><path
                   d="M 0,0 H -19 V 4 H 2 Z"
                   style="fill:#f7c90b;fill-opacity:1;fill-rule:nonzero;stroke:none"
                   id="path8800"
                   inkscape:connector-curvature="0" /></g></g></g></g><g
           id="g8808"><g
             id="g8810" /><g
             id="g8822"><g
               clip-path="url(#clipPath8814)"
               id="g8820"
               style="opacity:0.30000299"><g
                 transform="translate(43.2734,43.5674)"
                 id="g8818"><path
                   d="m 0,0 -4.662,2.692 c -0.231,0.132 -0.504,0.169 -0.759,0.1 -0.256,-0.069 -0.475,-0.237 -0.607,-0.466 0,0 -18.379,-31.834 -18.847,-32.642 -0.803,-1.389 -2.297,-2.251 -3.898,-2.251 -2.482,0 -4.5,2.018 -4.5,4.5 0,0.791 0.208,1.569 0.601,2.249 l 3.178,5.5 c 0.276,0.478 0.112,1.089 -0.366,1.366 -0.478,0.275 -1.09,0.112 -1.366,-0.366 h -0.001 l -3.176,-5.498 c -0.57,-0.985 -0.87,-2.109 -0.87,-3.251 0,-3.584 2.916,-6.5 6.5,-6.5 2.222,0 4.301,1.149 5.489,3.017 l 3.264,-1.885 c 0.479,-0.275 1.09,-0.112 1.367,0.367 0.276,0.478 0.112,1.089 -0.367,1.366 l -3.259,1.882 c 1.531,2.651 4.859,8.415 8.24,14.271 l 3.267,-1.886 c 0.477,-0.276 1.088,-0.111 1.366,0.367 0.276,0.478 0.112,1.089 -0.366,1.366 l -3.267,1.886 c 3.561,6.167 6.99,12.106 8.243,14.275 L -1,-1.732 C -0.523,-2.007 0.089,-1.845 0.366,-1.366 0.643,-0.888 0.479,-0.276 0,0"
                   style="fill:#ffffff;fill-opacity:1;fill-rule:nonzero;stroke:none"
                   id="path8816"
                   inkscape:connector-curvature="0" /></g></g></g></g></g></g><g
       id="g8824"><g
         id="g8826"
         clip-path="url(#clipPath8830)"><g
           id="g8832"
           transform="translate(30.9736,17.499)"><path
             d="M 0,0 C -0.829,-1.435 -2.663,-1.927 -4.098,-1.098 -5.533,-0.27 -6.024,1.565 -5.196,3 -4.367,4.436 -2.533,4.927 -1.098,4.099 0.338,3.27 0.828,1.436 0,0"
             style="fill:#e0a30a;fill-opacity:1;fill-rule:evenodd;stroke:none"
             id="path8834"
             inkscape:connector-curvature="0" /></g><g
           id="g8836"
           transform="translate(26.3521,9.499)"><path
             d="M 0,0 C -0.829,-1.435 -2.663,-1.927 -4.098,-1.098 -5.533,-0.27 -6.024,1.565 -5.196,3 -4.367,4.436 -2.533,4.927 -1.098,4.099 0.338,3.27 0.828,1.436 0,0"
             style="fill:#e0a30a;fill-opacity:1;fill-rule:evenodd;stroke:none"
             id="path8838"
             inkscape:connector-curvature="0" /></g><g
           id="g8840"
           transform="translate(12.5298,9.499)"><path
             d="M 0,0 C -0.829,-1.435 -2.663,-1.927 -4.098,-1.098 -5.533,-0.27 -6.024,1.565 -5.196,3 -4.367,4.436 -2.533,4.927 -1.098,4.099 0.338,3.27 0.828,1.436 0,0"
             style="fill:#e0a30a;fill-opacity:1;fill-rule:evenodd;stroke:none"
             id="path8842"
             inkscape:connector-curvature="0" /></g><g
           id="g8844"><g
             id="g8846" /><g
             id="g8858"><g
               clip-path="url(#clipPath8850)"
               id="g8856"
               style="opacity:0.5"><g
                 transform="translate(12.5298,9.499)"
                 id="g8854"><path
                   d="M 0,0 C -0.829,-1.435 -2.663,-1.927 -4.098,-1.098 -5.533,-0.27 -6.024,1.565 -5.196,3 -4.367,4.436 -2.533,4.927 -1.098,4.099 0.338,3.27 0.828,1.436 0,0"
                   style="fill:#f7c90b;fill-opacity:1;fill-rule:evenodd;stroke:none"
                   id="path8852"
                   inkscape:connector-curvature="0" /></g></g></g></g><g
           id="g8860"
           transform="translate(35.5986,25.499)"><path
             d="M 0,0 C -0.828,-1.435 -2.663,-1.926 -4.098,-1.098 -5.533,-0.269 -6.024,1.565 -5.196,3 -4.367,4.436 -2.533,4.927 -1.098,4.099 0.337,3.27 0.829,1.436 0,0"
             style="fill:#e0a30a;fill-opacity:1;fill-rule:evenodd;stroke:none"
             id="path8862"
             inkscape:connector-curvature="0" /></g><g
           id="g8864"
           transform="translate(40.2275,33.501)"><path
             d="M 0,0 C -0.828,-1.436 -2.663,-1.927 -4.098,-1.099 -5.533,-0.27 -6.024,1.564 -5.196,3 -4.367,4.435 -2.533,4.926 -1.098,4.098 0.337,3.269 0.829,1.435 0,0"
             style="fill:#e0a30a;fill-opacity:1;fill-rule:evenodd;stroke:none"
             id="path8866"
             inkscape:connector-curvature="0" /></g><g
           id="g8868"
           transform="translate(44.8555,41.4995)"><path
             d="M 0,0 C -0.828,-1.435 -2.663,-1.927 -4.098,-1.098 -5.533,-0.27 -6.024,1.565 -5.196,3 -4.367,4.435 -2.533,4.927 -1.098,4.098 0.337,3.27 0.829,1.435 0,0"
             style="fill:#e0a30a;fill-opacity:1;fill-rule:evenodd;stroke:none"
             id="path8870"
             inkscape:connector-curvature="0" /></g></g></g></g></svg>