<?xml version="1.0" encoding="UTF-8" standalone="no"?>
<!-- Created with Inkscape (http://www.inkscape.org/) -->

<svg
   xmlns:dc="http://purl.org/dc/elements/1.1/"
   xmlns:cc="http://creativecommons.org/ns#"
   xmlns:rdf="http://www.w3.org/1999/02/22-rdf-syntax-ns#"
   xmlns:svg="http://www.w3.org/2000/svg"
   xmlns="http://www.w3.org/2000/svg"
   xmlns:sodipodi="http://sodipodi.sourceforge.net/DTD/sodipodi-0.dtd"
   xmlns:inkscape="http://www.inkscape.org/namespaces/inkscape"
   version="1.1"
   id="svg9415"
   xml:space="preserve"
   width="85.333336"
   height="85.333336"
   viewBox="0 0 85.333336 85.333336"
   sodipodi:docname="trumpet.svg"
   inkscape:version="0.92.1 unknown"><metadata
     id="metadata9421"><rdf:RDF><cc:Work
         rdf:about=""><dc:format>image/svg+xml</dc:format><dc:type
           rdf:resource="http://purl.org/dc/dcmitype/StillImage" /><dc:title></dc:title></cc:Work></rdf:RDF></metadata><defs
     id="defs9419"><clipPath
       clipPathUnits="userSpaceOnUse"
       id="clipPath9435"><path
         d="M 0,64 H 64 V 0 H 0 Z"
         id="path9433"
         inkscape:connector-curvature="0" /></clipPath><clipPath
       clipPathUnits="userSpaceOnUse"
       id="clipPath9451"><path
         d="M 28.288,29.989 C 22.235,19.489 14.754,12.029 7.498,12.029 v 0 c 2.042,-3.535 5,-6.622 8.8,-8.814 v 0 C 20.098,1.022 24.242,-0.001 28.338,0 v 0 c -3.628,6.28 -0.91,16.492 5.15,26.988 v 0 c 1.966,3.406 7.012,16.22 7.012,16.22 v 0 L 49.436,58.687 46,60.672 c 0,0 -13.397,-23.203 -17.712,-30.683"
         id="path9449"
         inkscape:connector-curvature="0" /></clipPath><clipPath
       clipPathUnits="userSpaceOnUse"
       id="clipPath9459"><path
         d="M 7.49756,16.2178 H 29.9946 V 0 H 7.49756 Z"
         id="path9457"
         inkscape:connector-curvature="0" /></clipPath><clipPath
       clipPathUnits="userSpaceOnUse"
       id="clipPath9475"><path
         d="M 0,64 H 64 V 0 H 0 Z"
         id="path9473"
         inkscape:connector-curvature="0" /></clipPath><clipPath
       clipPathUnits="userSpaceOnUse"
       id="clipPath9487"><path
         d="M 40.149,46.525 C 39.258,44.985 32.294,32.923 31.405,31.381 v 0 C 29.49,28.064 30.631,23.806 33.948,21.89 v 0 c 1.055,-0.61 2.255,-0.933 3.47,-0.933 v 0 c 2.477,0 4.785,1.332 6.022,3.476 v 0 l 8.744,15.143 c 0.929,1.607 1.174,3.479 0.694,5.272 v 0 c -0.482,1.795 -1.631,3.293 -3.239,4.22 v 0 C 48.584,49.677 47.386,50 46.172,50 v 0 c -2.478,0 -4.785,-1.331 -6.023,-3.475 M 35.947,25.354 c -1.406,0.813 -1.89,2.621 -1.078,4.029 v 0 c 0.889,1.541 7.85,13.598 8.743,15.141 v 0 C 44.139,45.435 45.119,46 46.172,46 v 0 c 0.519,0 1.012,-0.133 1.468,-0.396 v 0 c 0.682,-0.394 1.171,-1.031 1.375,-1.791 v 0 c 0.203,-0.762 0.099,-1.555 -0.294,-2.236 v 0 L 39.976,26.434 c -0.531,-0.923 -1.559,-1.457 -2.597,-1.457 v 0 c -0.493,0 -0.987,0.12 -1.432,0.377"
         id="path9485"
         inkscape:connector-curvature="0" /></clipPath><clipPath
       clipPathUnits="userSpaceOnUse"
       id="clipPath9495"><path
         d="M 26.8022,60.6714 H 51.1357 V 20.5859 H 26.8022 Z"
         id="path9493"
         inkscape:connector-curvature="0" /></clipPath><clipPath
       clipPathUnits="userSpaceOnUse"
       id="clipPath9511"><path
         d="M 0,64 H 64 V 0 H 0 Z"
         id="path9509"
         inkscape:connector-curvature="0" /></clipPath><clipPath
       clipPathUnits="userSpaceOnUse"
       id="clipPath9519"><path
         d="M 33.0537,41.7119 H 51.9805 V 28.4756 H 33.0537 Z"
         id="path9517"
         inkscape:connector-curvature="0" /></clipPath><clipPath
       clipPathUnits="userSpaceOnUse"
       id="clipPath9539"><path
         d="m 29.3613,45.9082 h 6.4873 V 35.4785 h -6.4873 z"
         id="path9537"
         inkscape:connector-curvature="0" /></clipPath></defs><sodipodi:namedview
     pagecolor="#ffffff"
     bordercolor="#666666"
     borderopacity="1"
     objecttolerance="10"
     gridtolerance="10"
     guidetolerance="10"
     inkscape:pageopacity="0"
     inkscape:pageshadow="2"
     inkscape:window-width="686"
     inkscape:window-height="480"
     id="namedview9417"
     showgrid="false"
     inkscape:zoom="2.7656249"
     inkscape:cx="42.666668"
     inkscape:cy="42.666668"
     inkscape:window-x="0"
     inkscape:window-y="30"
     inkscape:window-maximized="0"
     inkscape:current-layer="g9423" /><g
     id="g9423"
     inkscape:groupmode="layer"
     inkscape:label="trumpet"
     transform="matrix(1.3333333,0,0,-1.3333333,0,85.333333)"><g
       id="g9425"
       transform="translate(31.0552,34.7837)"><path
         d="M 0,0 16.925,-9.772 22.924,0.62 5.999,10.393 Z"
         style="fill:#e0a30a;fill-opacity:1;fill-rule:nonzero;stroke:none"
         id="path9427"
         inkscape:connector-curvature="0" /></g><g
       id="g9429"><g
         id="g9431"
         clip-path="url(#clipPath9435)"><g
           id="g9437"
           transform="translate(52.3203,60.3525)"><path
             d="M 0,0 C -0.62,1.071 -1.517,2.008 -2.67,2.672 -3.821,3.337 -5.079,3.647 -6.32,3.647 V -3.65 Z"
             style="fill:#93684e;fill-opacity:1;fill-rule:nonzero;stroke:none"
             id="path9439"
             inkscape:connector-curvature="0" /></g><g
           id="g9441"
           transform="translate(7.4976,12.0283)"><path
             d="m 0,0 c 2.042,-3.534 5.001,-6.621 8.801,-8.813 3.8,-2.193 7.944,-3.216 12.04,-3.215 -3.628,6.28 -0.911,16.491 5.15,26.988 1.966,3.405 7.011,16.22 7.011,16.22 l 8.937,15.479 -3.437,1.984 c 0,0 -13.397,-23.203 -17.712,-30.682 C 14.738,7.46 7.256,0.001 0,0"
             style="fill:#e0a30a;fill-opacity:1;fill-rule:nonzero;stroke:none"
             id="path9443"
             inkscape:connector-curvature="0" /></g></g></g><g
       id="g9445"><g
         id="g9447"
         clip-path="url(#clipPath9451)"><g
           id="g9453"><g
             id="g9455" /><g
             id="g9467"><g
               clip-path="url(#clipPath9459)"
               id="g9465"
               style="opacity:0.5"><g
                 transform="translate(29.9946,5.3174)"
                 id="g9463"><path
                   d="M 0,0 C -3.712,0 -7.467,0.927 -10.911,2.914 -14.354,4.9 -17.035,7.698 -18.886,10.9 L -22.497,6.711 V -5.317 h 20.841 z"
                   style="fill:#f7c90b;fill-opacity:1;fill-rule:nonzero;stroke:none"
                   id="path9461"
                   inkscape:connector-curvature="0" /></g></g></g></g></g></g><g
       id="g9469"><g
         id="g9471"
         clip-path="url(#clipPath9475)"><g
           id="g9477"
           transform="translate(48.7207,41.5771)"><path
             d="m 0,0 -8.744,-15.144 c -0.784,-1.36 -2.649,-1.877 -4.029,-1.08 -1.407,0.814 -1.891,2.621 -1.079,4.03 0.889,1.541 7.851,13.598 8.744,15.141 0.526,0.91 1.506,1.476 2.559,1.476 0.52,0 1.013,-0.133 1.468,-0.396 C -0.398,3.633 0.09,2.997 0.294,2.236 0.498,1.475 0.394,0.681 0,0 m 4.157,3.271 c -0.481,1.794 -1.631,3.292 -3.239,4.22 -1.055,0.61 -2.253,0.932 -3.467,0.932 -2.477,0 -4.784,-1.331 -6.022,-3.475 -0.892,-1.541 -7.856,-13.602 -8.745,-15.144 -1.914,-3.318 -0.774,-7.575 2.544,-9.492 1.054,-0.61 2.254,-0.932 3.469,-0.932 2.478,0 4.785,1.332 6.023,3.476 l 8.743,15.143 c 0.929,1.607 1.175,3.479 0.694,5.272"
             style="fill:#e0a30a;fill-opacity:1;fill-rule:nonzero;stroke:none"
             id="path9479"
             inkscape:connector-curvature="0" /></g></g></g><g
       id="g9481"><g
         id="g9483"
         clip-path="url(#clipPath9487)"><g
           id="g9489"><g
             id="g9491" /><g
             id="g9503"><g
               clip-path="url(#clipPath9495)"
               id="g9501"
               style="opacity:0.5"><g
                 transform="translate(41.5625,20.957)"
                 id="g9499"><path
                   d="m 0,0 9.573,16.088 -4.635,2.677 c 0,0 -2.471,1.453 -4.236,2.47 -0.928,0.535 -1.019,2.307 -0.468,3.263 l 7.64,13.232 -3.436,1.984 c 0,0 -13.397,-23.202 -17.713,-30.682 C -16.4,3.61 -14.254,0.89 -10,0 -6.016,-0.834 0,0 0,0"
                   style="fill:#f7c90b;fill-opacity:1;fill-rule:nonzero;stroke:none"
                   id="path9497"
                   inkscape:connector-curvature="0" /></g></g></g></g></g></g><g
       id="g9505"><g
         id="g9507"
         clip-path="url(#clipPath9511)"><g
           id="g9513"><g
             id="g9515" /><g
             id="g9527"><g
               clip-path="url(#clipPath9519)"
               id="g9525"
               style="opacity:0.30000299"><g
                 transform="translate(46.8262,30.2969)"
                 id="g9523"><path
                   d="m 0,0 3.154,-1.821 2,3.464 L 2,3.464 Z M -11.772,11.415 -1.464,5.464 -3.464,2 -13.772,7.951 Z"
                   style="fill:#ffffff;fill-opacity:1;fill-rule:nonzero;stroke:none"
                   id="path9521"
                   inkscape:connector-curvature="0" /></g></g></g></g><g
           id="g9529"
           transform="translate(33.6777,44.8164)"><path
             d="M 0,0 C -0.805,-1.401 0.172,-2.41 0.172,-2.41 L 2.171,1.055 C 2.171,1.055 0.809,1.398 0,0 m -1.999,-3.465 c -0.805,-1.399 0.172,-2.409 0.172,-2.409 l 1.999,3.464 c 0,0 -1.362,0.344 -2.171,-1.055 m 0.172,-2.409 -1.999,-3.464 c 0,0 -0.977,1.009 -0.172,2.408 0.811,1.399 2.171,1.056 2.171,1.056"
             style="fill:#e0a30a;fill-opacity:1;fill-rule:nonzero;stroke:none"
             id="path9531"
             inkscape:connector-curvature="0" /></g><g
           id="g9533"><g
             id="g9535" /><g
             id="g9547"><g
               clip-path="url(#clipPath9539)"
               id="g9545"
               style="opacity:0.5"><g
                 transform="translate(33.6777,44.8164)"
                 id="g9543"><path
                   d="M 0,0 C -0.805,-1.401 0.172,-2.41 0.172,-2.41 L 2.171,1.055 C 2.171,1.055 0.809,1.398 0,0 m -1.999,-3.465 c -0.805,-1.399 0.172,-2.409 0.172,-2.409 l 1.999,3.464 c 0,0 -1.362,0.344 -2.171,-1.055 m 0.172,-2.409 -1.999,-3.464 c 0,0 -0.977,1.009 -0.172,2.408 0.811,1.399 2.171,1.056 2.171,1.056"
                   style="fill:#f7c90b;fill-opacity:1;fill-rule:nonzero;stroke:none"
                   id="path9541"
                   inkscape:connector-curvature="0" /></g></g></g></g></g></g></g></svg>